<svg id="レイヤー_1" data-name="レイヤー 1" xmlns="http://www.w3.org/2000/svg" viewBox="0 0 1818 418.46"><defs><style>.cls-1{fill:none;}.cls-2,.cls-3,.cls-4,.cls-5{fill:#454545;}.cls-3,.cls-4,.cls-5{isolation:isolate;}.cls-3,.cls-5{font-size:84.59px;font-family:Teko-Light, Teko;font-weight:300;}.cls-3{letter-spacing:0.59em;}.cls-4{font-size:36.58px;font-family:KozGoPr6N-Regular-83pv-RKSJ-H, Kozuka Gothic Pr6N;letter-spacing:0.59em;}.cls-5{letter-spacing:0.59em;}</style></defs><g id="Layer_1" data-name="Layer 1"><path class="cls-1" d="M469.38,124.33l-42-24.22a10,10,0,0,0-15,8.67v48.44a10,10,0,0,0,15,8.67l42-24.22a10,10,0,0,0,0-17.34Z"/><path class="cls-2" d="M545.19,0H341.61A31.21,31.21,0,0,0,310.4,31.21V234.79A31.21,31.21,0,0,0,341.61,266H545.19a31.21,31.21,0,0,0,31.21-31.21h0V31.21A31.21,31.21,0,0,0,545.19,0ZM469.38,141.67l-42,24.22a10,10,0,0,1-15-8.67V108.78a10,10,0,0,1,15-8.67l42,24.22a10,10,0,0,1,0,17.34Z"/><path class="cls-2" d="M234.79,0H174.57l-32.9,57a10,10,0,0,1-17.34,0L91.43,0H31.21A31.21,31.21,0,0,0,0,31.21V234.79A31.21,31.21,0,0,0,31.21,266h5.18l32.9-57a10,10,0,0,1,17.35,0l32.89,57h26.94l32.89-57a10,10,0,0,1,17.35,0l32.9,57h5.18A31.21,31.21,0,0,0,266,234.79h0V31.21A31.21,31.21,0,0,0,234.79,0Z"/><path class="cls-2" d="M855.59,0h-5.18l-32.9,57a10,10,0,0,1-17.35,0L767.27,0H740.33L707.44,57a10,10,0,0,1-17.35,0L657.19,0H652a31.21,31.21,0,0,0-31.21,31.21h0V234.79A31.21,31.21,0,0,0,652,266h60.22l32.9-57a10,10,0,0,1,17.34,0l32.9,57h60.22a31.21,31.21,0,0,0,31.21-31.21h0V31.21A31.22,31.22,0,0,0,855.59,0Z"/><path class="cls-2" d="M1761,129.52l57-32.89V31.21A31.21,31.21,0,0,0,1786.79,0H1583.21A31.21,31.21,0,0,0,1552,31.21V234.79A31.21,31.21,0,0,0,1583.21,266h203.58A31.21,31.21,0,0,0,1818,234.79h0v-55l-57-32.89a10,10,0,0,1,0-17.38Zm-50,68.15-42,24.22a10,10,0,0,1-15-8.67V164.78a10,10,0,0,1,15-8.67l42,24.22a10,10,0,0,1,0,17.34Zm0-112-42,24.22a10,10,0,0,1-15-8.67V52.78a10,10,0,0,1,15-8.67l42,24.22a10,10,0,0,1,0,17.34Z"/><path class="cls-2" d="M1450.62,74.48l57-32.89V31.21A31.21,31.21,0,0,0,1476.41,0h-203.6a31.21,31.21,0,0,0-31.21,31.21V234.79A31.21,31.21,0,0,0,1272.81,266h203.58a31.22,31.22,0,0,0,31.21-31.2l-57-32.89a10,10,0,0,1,0-17.35l57-32.9V124.73l-57-32.9a10,10,0,0,1,0-17.35Z"/><path class="cls-2" d="M1140.22,74.48l57-32.89V31.21A31.21,31.21,0,0,0,1166,0H962.41A31.21,31.21,0,0,0,931.2,31.21h0V234.79A31.21,31.21,0,0,0,962.41,266H1166a31.22,31.22,0,0,0,31.21-31.2l-57-32.89a10,10,0,0,1,0-17.35l57-32.9V124.73l-57-32.9a10,10,0,0,1,0-17.35Z"/><text class="cls-3" transform="translate(558.68 386.41)">Motion</text><text class="cls-4" transform="translate(992.71 377.29)">×</text><text class="cls-5" transform="translate(1073.12 386.41)">Web</text></g></svg>