<?xml version="1.0" encoding="utf-8"?>
<!-- Generator: Adobe Illustrator 25.4.1, SVG Export Plug-In . SVG Version: 6.00 Build 0)  -->
<svg version="1.1" id="レイヤー_1" xmlns="http://www.w3.org/2000/svg" xmlns:xlink="http://www.w3.org/1999/xlink" x="0px"
	 y="0px" viewBox="0 0 1818 418.5" style="enable-background:new 0 0 1818 418.5;" xml:space="preserve">
<style type="text/css">
	.st0{fill:#1F1F1F;}
</style>
<g>
	<g id="Layer_1">
		<path class="st0" d="M234.8,76.3h-60.2l-32.9,57c-2.8,4.8-8.9,6.4-13.7,3.7c-1.5-0.9-2.8-2.2-3.7-3.7l-32.9-57H31.2
			C14,76.3,0,90.3,0,107.5v203.6c0,17.2,14,31.2,31.2,31.2l0,0h5.2l32.9-57c2.7-4.8,8.9-6.4,13.6-3.7c1.5,0.9,2.8,2.2,3.7,3.7
			l32.9,57h26.9l32.9-57c2.7-4.8,8.9-6.4,13.6-3.7c1.5,0.9,2.8,2.2,3.7,3.7l32.9,57h5.2c17.2,0,31.2-14,31.2-31.2l0,0V107.5
			C266,90.3,252,76.3,234.8,76.3z"/>
		<path class="st0" d="M545.2,76.2H341.6c-17.2,0-31.2,14-31.2,31.2V311c0,17.2,14,31.2,31.2,31.2l0,0h203.6
			c17.2,0,31.2-14,31.2-31.2l0,0V107.4C576.4,90.2,562.4,76.2,545.2,76.2L545.2,76.2z M469.4,217.9l-42,24.2
			c-4.8,2.8-10.9,1.1-13.7-3.7c-0.9-1.5-1.3-3.3-1.3-5V185c0-5.5,4.5-10,10-10c1.8,0,3.5,0.5,5,1.3l42,24.2
			c4.8,2.8,6.4,8.9,3.7,13.7C472.2,215.8,470.9,217.1,469.4,217.9z"/>
		<path class="st0" d="M855.6,76.2h-5.2l-32.9,57c-2.7,4.8-8.9,6.4-13.6,3.7c-1.5-0.9-2.8-2.2-3.7-3.7l-32.9-57h-26.9l-32.9,57
			c-2.7,4.8-8.9,6.4-13.6,3.7c-1.5-0.9-2.8-2.2-3.7-3.7l-33-57H652c-17.2,0-31.2,14-31.2,31.2l0,0V311c0,17.2,14,31.2,31.2,31.2l0,0
			h60.2l32.9-57c2.8-4.8,8.9-6.4,13.7-3.7c1.5,0.9,2.8,2.2,3.7,3.7l32.9,57h60.2c17.2,0,31.2-14,31.2-31.2l0,0V107.4
			C886.8,90.2,872.8,76.2,855.6,76.2z"/>
		<path class="st0" d="M1140.2,150.8l57-32.9v-10.4c0-17.2-14-31.2-31.2-31.2l0,0H962.4c-17.2,0-31.2,14-31.2,31.2l0,0V311
			c0,17.2,14,31.2,31.2,31.2l0,0H1166c17.2,0,31.2-14,31.2-31.2l-57-32.9c-4.8-2.7-6.4-8.9-3.7-13.6c0.9-1.5,2.2-2.8,3.7-3.7
			l57-32.9V201l-57-32.9c-4.8-2.8-6.4-8.9-3.7-13.7C1137.4,152.8,1138.7,151.6,1140.2,150.8z"/>
		<path class="st0" d="M1450.6,150.8l57-32.9v-10.4c0-17.2-14-31.2-31.2-31.2l0,0h-203.6c-17.2,0-31.2,14-31.2,31.2V311
			c0,17.2,14,31.2,31.2,31.2h203.6c17.2,0,31.2-14,31.2-31.2l-57-32.9c-4.8-2.7-6.4-8.9-3.7-13.6c0.9-1.5,2.2-2.8,3.7-3.7l57-32.9
			V201l-57-32.9c-4.8-2.8-6.4-8.9-3.7-13.7C1447.8,152.8,1449.1,151.6,1450.6,150.8z"/>
		<path class="st0" d="M1761,205.8l57-32.9v-65.4c0-17.2-14-31.2-31.2-31.2h-203.6c-17.2,0-31.2,14-31.2,31.2V311
			c0,17.2,14,31.2,31.2,31.2h203.6c17.2,0,31.2-14,31.2-31.2l0,0v-55l-57-32.9c-4.8-2.7-6.5-8.8-3.7-13.6
			C1758.1,207.9,1759.4,206.6,1761,205.8z M1711,274l-42,24.2c-4.8,2.8-10.9,1.1-13.7-3.7c-0.9-1.5-1.3-3.3-1.3-5V241
			c0-5.5,4.5-10,10-10c1.8,0,3.5,0.5,5,1.3l42,24.2c4.8,2.8,6.4,8.9,3.7,13.7C1713.8,271.8,1712.5,273,1711,274z M1711,161.9
			l-42,24.2c-4.8,2.8-10.9,1.1-13.7-3.7c-0.9-1.5-1.3-3.3-1.3-5v-48.4c0-5.5,4.5-10,10-10c1.8,0,3.5,0.5,5,1.3l42,24.2
			c4.8,2.8,6.4,8.9,3.7,13.7C1713.8,159.8,1712.5,161.1,1711,161.9L1711,161.9z"/>
	</g>
</g>
</svg>
