<?xml version="1.0" encoding="utf-8"?>
<!-- Generator: Adobe Illustrator 25.4.1, SVG Export Plug-In . SVG Version: 6.00 Build 0)  -->
<svg version="1.1" id="レイヤー_1" xmlns="http://www.w3.org/2000/svg" xmlns:xlink="http://www.w3.org/1999/xlink" x="0px"
	 y="0px" viewBox="0 0 1818 418.5" style="enable-background:new 0 0 1818 418.5;" xml:space="preserve">
<style type="text/css">
	.st0{fill:none;}
	.st1{fill:white;}
	.st2{font-family:'Teko-Light';}
	.st3{font-size:84.59px;}
	.st4{letter-spacing:49;}
	.st5{font-family:'KozGoPr6N-Regular-83pv-RKSJ-H';}
	.st6{font-size:36.58px;}
	.st7{letter-spacing:21;}
</style>
<g>
	<g id="Layer_1">
		<path class="st0" d="M469.4,124.3l-42-24.2c-4.8-2.8-10.9-1.1-13.7,3.7c-0.9,1.5-1.3,3.3-1.3,5v48.4c0,5.5,4.5,10,10,10
			c1.8,0,3.5-0.5,5-1.3l42-24.2c4.8-2.8,6.4-8.9,3.7-13.7C472.2,126.5,470.9,125.2,469.4,124.3z"/>
		<path class="st1" d="M545.2,0H341.6c-17.2,0-31.2,14-31.2,31.2v203.6c0,17.2,14,31.2,31.2,31.2c0,0,0,0,0,0h203.6
			c17.2,0,31.2-14,31.2-31.2v0V31.2C576.4,14,562.4,0,545.2,0L545.2,0z M469.4,141.7l-42,24.2c-4.8,2.8-10.9,1.1-13.7-3.7
			c-0.9-1.5-1.3-3.3-1.3-5v-48.4c0-5.5,4.5-10,10-10c1.8,0,3.5,0.5,5,1.3l42,24.2c4.8,2.8,6.4,8.9,3.7,13.7
			C472.2,139.5,470.9,140.8,469.4,141.7z"/>
		<path class="st1" d="M234.8,0h-60.2l-32.9,57c-2.8,4.8-8.9,6.4-13.7,3.7c-1.5-0.9-2.8-2.2-3.7-3.7L91.4,0H31.2C14,0,0,14,0,31.2
			v203.6C0,252,14,266,31.2,266c0,0,0,0,0,0h5.2l32.9-57c2.7-4.8,8.9-6.4,13.6-3.7c1.5,0.9,2.8,2.2,3.7,3.7l32.9,57h26.9l32.9-57
			c2.7-4.8,8.9-6.4,13.6-3.7c1.5,0.9,2.8,2.2,3.7,3.7l32.9,57h5.2c17.2,0,31.2-14,31.2-31.2l0,0V31.2C266,14,252,0,234.8,0z"/>
		<path class="st1" d="M855.6,0h-5.2l-32.9,57c-2.7,4.8-8.9,6.4-13.6,3.7c-1.5-0.9-2.8-2.2-3.7-3.7L767.3,0h-26.9l-32.9,57
			c-2.7,4.8-8.9,6.4-13.6,3.7c-1.5-0.9-2.8-2.2-3.7-3.7L657.2,0H652c-17.2,0-31.2,14-31.2,31.2c0,0,0,0,0,0v203.6
			c0,17.2,14,31.2,31.2,31.2h0h60.2l32.9-57c2.8-4.8,8.9-6.4,13.7-3.7c1.5,0.9,2.8,2.2,3.7,3.7l32.9,57h60.2
			c17.2,0,31.2-14,31.2-31.2v0V31.2C886.8,14,872.8,0,855.6,0z"/>
		<path class="st1" d="M1761,129.5l57-32.9V31.2C1818,14,1804,0,1786.8,0h-203.6C1566,0,1552,14,1552,31.2v203.6
			c0,17.2,14,31.2,31.2,31.2h203.6c17.2,0,31.2-14,31.2-31.2c0,0,0,0,0,0v-55l-57-32.9c-4.8-2.7-6.5-8.8-3.7-13.6
			C1758.1,131.7,1759.4,130.4,1761,129.5z M1711,197.7l-42,24.2c-4.8,2.8-10.9,1.1-13.7-3.7c-0.9-1.5-1.3-3.3-1.3-5v-48.4
			c0-5.5,4.5-10,10-10c1.8,0,3.5,0.5,5,1.3l42,24.2c4.8,2.8,6.4,8.9,3.7,13.7C1713.8,195.5,1712.5,196.8,1711,197.7z M1711,85.7
			l-42,24.2c-4.8,2.8-10.9,1.1-13.7-3.7c-0.9-1.5-1.3-3.3-1.3-5V52.8c0-5.5,4.5-10,10-10c1.8,0,3.5,0.5,5,1.3l42,24.2
			c4.8,2.8,6.4,8.9,3.7,13.7C1713.8,83.5,1712.5,84.8,1711,85.7L1711,85.7z"/>
		<path class="st1" d="M1450.6,74.5l57-32.9V31.2c0-17.2-14-31.2-31.2-31.2c0,0,0,0,0,0h-203.6c-17.2,0-31.2,14-31.2,31.2v203.6
			c0,17.2,14,31.2,31.2,31.2h203.6c17.2,0,31.2-14,31.2-31.2l-57-32.9c-4.8-2.7-6.4-8.9-3.7-13.6c0.9-1.5,2.2-2.8,3.7-3.7l57-32.9
			v-26.9l-57-32.9c-4.8-2.8-6.4-8.9-3.7-13.7C1447.8,76.6,1449.1,75.4,1450.6,74.5z"/>
		<path class="st1" d="M1140.2,74.5l57-32.9V31.2c0-17.2-14-31.2-31.2-31.2c0,0,0,0,0,0H962.4c-17.2,0-31.2,14-31.2,31.2
			c0,0,0,0,0,0v203.6c0,17.2,14,31.2,31.2,31.2l0,0H1166c17.2,0,31.2-14,31.2-31.2l-57-32.9c-4.8-2.7-6.4-8.9-3.7-13.6
			c0.9-1.5,2.2-2.8,3.7-3.7l57-32.9v-26.9l-57-32.9c-4.8-2.8-6.4-8.9-3.7-13.7C1137.4,76.6,1138.7,75.4,1140.2,74.5z"/>
		<text transform="matrix(1 0 0 1 558.68 386.41)" class="st1 st2 st3 st4">Motion</text>
		<text transform="matrix(1 0 0 1 992.71 377.29)" class="st1 st5 st6 st7">×</text>
		<text transform="matrix(1 0 0 1 1073.12 386.41)" class="st1 st2 st3 st4">Web</text>
	</g>
</g>
</svg>
