<svg id="レイヤー_1" data-name="レイヤー 1" xmlns="http://www.w3.org/2000/svg" viewBox="0 0 303.2 218.54"><defs><style>.cls-1{fill:#fff;}</style></defs><path class="cls-1" d="M300.7,40.9H3.4V15.2a11,11,0,0,1,11-11H289.6a11.14,11.14,0,0,1,11.1,11.1Z" transform="translate(0.04)"/><path d="M22.2,14.8a6,6,0,0,0-6.2,6V21c0,3.9,2.4,6.3,6.2,6.3s6.2-2.4,6.2-6.3a6.06,6.06,0,0,0-6-6.2Z" transform="translate(0.04)"/><path d="M40.6,14.8a6,6,0,0,0-6.2,6V21c0,3.9,2.4,6.3,6.2,6.3s6.2-2.4,6.2-6.3a6.06,6.06,0,0,0-6-6.2Z" transform="translate(0.04)"/><path d="M59,14.8a6,6,0,0,0-6.2,6V21c0,3.9,2.4,6.3,6.2,6.3s6.2-2.4,6.2-6.3a6.06,6.06,0,0,0-6-6.2Z" transform="translate(0.04)"/><path d="M286.6,16.2c3.1,0,3.1-4.8,0-4.8S283.5,16.2,286.6,16.2Z" transform="translate(0.04)"/><path d="M286.6,23.2c3.1,0,3.1-4.8,0-4.8S283.5,23.2,286.6,23.2Z" transform="translate(0.04)"/><path d="M286.6,30.2c3.1,0,3.1-4.8,0-4.8S283.5,30.2,286.6,30.2Z" transform="translate(0.04)"/><path d="M299.1,14V203.4c0,4.4-2.1,8.6-6.5,10.1-2.9,1-6.3.6-9.3.6H254.1l-49.8.1-56.2.1-55.8.1-48.8.1H15.6a14.11,14.11,0,0,1-5.4-.7,10,10,0,0,1-4.9-4.2c-1.9-3.2-1.4-7-1.4-10.6V18.4C3.9,14.7,3.6,11,6.1,8a10.2,10.2,0,0,1,5.6-3.4,17.57,17.57,0,0,1,4.6-.2H43.2l47.3-.1,53.9-.1,54.8-.1L247.7,4h36.5c2.5,0,5.3-.3,7.8.4a10.08,10.08,0,0,1,7.1,9.6,2,2,0,0,0,4,0,14.28,14.28,0,0,0-6.9-12.1C292.9,0,289.5,0,285.8,0h-16c-14.5,0-29,.1-43.5.1L173.1.2,117.2.3,65.1.4,23.4.5h-8c-4.6,0-8.9,1.2-12,4.8A14.56,14.56,0,0,0,.2,11.9,31.72,31.72,0,0,0,0,17.2V199.6c0,4-.3,8,1.7,11.7a14,14,0,0,0,11.9,7.2c2.8.1,5.6,0,8.4,0,14.3,0,28.6-.1,42.8-.1l53.8-.1,57.6-.1c18.3,0,36.5-.1,54.8-.1,14.8,0,29.7-.1,44.5-.1h8.8c3.6,0,7.2.2,10.6-1.3a13.88,13.88,0,0,0,8.1-11.5c.3-3.4.1-6.9.1-10.2V13.9C303.1,11.4,299.1,11.4,299.1,14Z" transform="translate(0.04)"/><path d="M2.3,41.5H35.7l31-.1,37.1-.1,40.4-.1,40.7-.1,38.7-.1,33.7-.1h43.4a2,2,0,0,0,0-4H264.4l-32,.1-37.7.1-40.6.1-40.6.1-38.2.1-32.9.1H2.3a2,2,0,0,0,0,4Z" transform="translate(0.04)"/></svg>