<?xml version="1.0" encoding="utf-8"?>
<!-- Generator: Adobe Illustrator 26.0.0, SVG Export Plug-In . SVG Version: 6.00 Build 0)  -->
<svg version="1.1" id="レイヤー_1" xmlns="http://www.w3.org/2000/svg" xmlns:xlink="http://www.w3.org/1999/xlink" x="0px"
	 y="0px" viewBox="0 0 265.1 360.4" style="enable-background:new 0 0 265.1 360.4;" xml:space="preserve">
<style type="text/css">
	.st0{fill:#FFFFFF;}
	.st1{fill:#7A7473;}
	.st2{fill:#211715;}
	.st3{fill:#B3B3B3;}
	.st4{fill:#55BEED;}
</style>
<path class="st0" d="M100.6,181.4c1-0.4,12.7-7.3,15.3-13.7c1.8-4.5,1.3-10.7,1.4-15.5c-4.7-2.8-8.9-6.3-12.3-10.5
	c-5.2-6.4-8.9-13.8-10.8-21.8l-0.8,0.2c-2.9,0.8-5.1-0.8-6.9-2.2c-2.2-1.9-4-4.2-5.2-6.9c-2.6-5.2-3.7-11-3.2-16.9
	c0.1-1.5,0.4-2.9,1.1-4.3c1.2-2,3.1-3.3,5.4-3.6c2.3-0.3,4.6,0.3,6.4,1.9c0,0,3.6-46.7,53.2-46.7c48.6,0,54.5,46.7,54.5,46.7
	c1.7-1.5,4.1-2.2,6.4-1.9c2.3,0.3,4.2,1.6,5.4,3.6c0.7,1.3,1,2.8,1.1,4.3c0.5,5.8-0.6,11.6-3.2,16.9c-1.2,2.6-3,5-5.2,6.9
	c-2.1,1.7-4.3,2.5-7.8,0.7c-0.5,2.5-1.2,5-2.1,7.5c-1.8,4.7-11.5,20.9-23.9,27.3c0,4.6-0.3,10.2,1.4,14.3
	c2.6,6.4,16.5,14.4,17.5,14.8c0,0-12.9,30.7-44.6,30.7S100.6,181.4,100.6,181.4z"/>
<path class="st1" d="M206.7,57.8c-0.5-3.7-1.4-7.4-2.7-10.9c-2.7-6.8-6.7-14.6-15-19.1l-7.6-6.7c-3.4-6.9-10.5-12.8-19.8-16.1
	c-9.8-3.5-38.3-4.1-47.9,4.2l-9.8,6.7c-11,5-18.7,17-22,29.4c-3.4,12.7-3.4,31.2,1.4,41.5c0.4-0.2,0.9-0.3,1.4-0.3
	c2.3-0.3,4.6,0.3,6.4,1.9c1.5,3.3,9.8-0.3,9.8-0.3c1.1-8.6,6.5-18,14.4-23.6c3.2-2.2,6.9-3.4,10.8-3.4l11.5-0.1
	c4.5,0.2,9-1,12.8-3.5c3.6-2.4,6.8-5.3,9.5-8.7c1.4-1.6,3-2.9,4.9-3.8l2.2,0.6c5.4,1.4,12.8,8.1,17,13.5c3.3,4.1,5.9,8.8,7.7,13.7
	c1,2.8,1.8,5.6,2.3,8.5c0.3,2,0.7,5.6,1.1,8.7l0.1,1.2l3.4-3c1.7-1.5,4-2.2,6.3-1.9C207.6,77.4,208,66.8,206.7,57.8z"/>
<path class="st2" d="M183.5,19.8c-5-10-16-16.8-26.8-18.6c-10.2-1.7-20.6-1.6-30.8,0.3c-4.9,1-10,2.6-13.9,5.9
	c-0.9,0.9-0.9,2.5,0,3.4c0.9,0.9,2.4,0.9,3.4,0c0,0,0.6-0.5,0.2-0.2c0.2-0.1,0.4-0.3,0.5-0.4c0.4-0.3,0.8-0.5,1.2-0.7
	c0.7-0.4,1.9-1,2.3-1.2c2-0.8,4.1-1.4,6.2-1.9c4.8-1,9.6-1.5,14.4-1.6c9-0.2,17.7,0.3,25.8,4.6c5.6,2.9,10.5,7.1,13.3,12.8
	C180.7,25,184.8,22.6,183.5,19.8L183.5,19.8z"/>
<path class="st2" d="M166.8,153.4c0.1,4.1,0.3,8.6,2.6,12.1c1.7,2.4,3.7,4.6,6.1,6.4c2.3,1.9,4.8,3.7,7.3,5.3
	c1.3,0.9,2.7,1.7,4.1,2.4c1.1,0.6,2.6,0.3,3.3-0.9c0.7-1.1,0.3-2.6-0.9-3.3c-1.3-0.6-2.5-1.4-3.7-2.2c-2.2-1.4-4.3-2.8-6.3-4.4
	c-1.2-0.9-2.3-1.9-3.3-2.9c-0.8-0.8-1.5-1.6-2.2-2.5c-0.3-0.5-0.7-1-0.9-1.6c0.3,0.6-0.2-0.5-0.2-0.6c-0.2-0.5-0.3-1.1-0.4-1.6
	c-0.4-2.1-0.6-4.2-0.6-6.4C171.6,150.3,166.8,150.3,166.8,153.4L166.8,153.4z"/>
<path class="st2" d="M101.8,178.5c1.4-0.7,2.7-1.5,4-2.4c2.4-1.6,4.6-3.3,6.8-5.2c2.1-1.8,3.9-4,5.2-6.5c1.8-3.7,1.9-8,1.9-12.1
	c0-3.1-4.8-3.1-4.8,0c0,1.9-0.1,3.8-0.3,5.8c-0.2,1.5-0.6,3-1.2,4.4c-1.2,2.1-2.8,3.9-4.7,5.5c-1.8,1.6-3.7,3-5.8,4.4
	c-1.1,0.8-2.3,1.5-3.5,2.1c-1.1,0.7-1.5,2.1-0.9,3.3C99.2,178.8,100.7,179.2,101.8,178.5L101.8,178.5z"/>
<path class="st2" d="M193,115.8c-0.1,2.2-0.5,4.4-1.2,6.5c-0.2,0.8-0.5,1.6-0.8,2.4c-0.1,0.3-0.2,0.5-0.3,0.8
	c-0.1,0.2-0.4,0.8-0.1,0.1c-1,2.1-2.1,4.1-3.3,6.1c-3.6,6-8.2,11.3-13.5,15.8c-2.9,2.5-6.4,4.4-10.1,5.5c-3,0.8-1.7,5.5,1.3,4.6
	c7.7-2.2,14-7.7,19.2-13.6c4.2-4.7,7.8-9.9,10.5-15.6c1.8-3.9,2.9-8.2,3.1-12.6C197.9,112.8,193.1,112.8,193,115.8L193,115.8z"/>
<path class="st2" d="M89.9,109.5c0.8,7.4,2.7,14.6,5.5,21.4c3.9,8.9,10.3,16.5,18.4,22c4.1,2.8,8.8,4.7,13.7,5.5
	c1.3,0.3,2.6-0.4,3-1.7c0.3-1.3-0.4-2.6-1.7-3c-8.5-1.3-15.5-6.3-21.1-12.6c-5.5-6.4-9.4-14-11.3-22.1c-0.4-1.8-0.8-3.6-1.1-5.4
	c-0.1-0.8-0.3-1.6-0.4-2.5c-0.1-0.6-0.1-0.8-0.2-1.7c0-1.3-1.1-2.4-2.4-2.4C90.9,107.1,89.9,108.2,89.9,109.5L89.9,109.5z"/>
<path class="st2" d="M166.2,47.9c2.6,0.9,5,2.2,7.1,4c2.6,2.1,5.1,4.4,7.3,7c4.8,5.5,8.3,12.1,10.1,19.3c0.9,3.9,1.5,7.9,1.8,11.9
	c0,1.3,1.1,2.4,2.4,2.4c1.3,0,2.4-1.1,2.4-2.4c-0.3-3.9-0.9-7.8-1.6-11.6c-0.9-4.1-2.4-8.1-4.3-11.9c-3.5-6.8-8.3-12.9-14.3-17.7
	c-2.9-2.3-6.1-4.6-9.7-5.6C164.5,42.4,163.3,47.1,166.2,47.9z"/>
<path class="st2" d="M200.3,89.9c2.3-1.9,5.7-1.6,7.6,0.6c1.1,1.4,1.2,3.3,1.3,5c0.1,1.9,0,3.9-0.3,5.8c-0.6,3.9-2,7.5-4,10.9
	c-1.5,2.4-4.1,5.8-7.3,4.9c-3-0.8-4.3,3.8-1.3,4.6c8.3,2.3,13.8-7.6,16-14.1c1.3-3.9,1.9-8.1,1.7-12.2c-0.2-4-1.3-7.8-4.9-10
	c-3.9-2.2-8.8-1.7-12.1,1.2c-0.9,0.9-0.9,2.5,0,3.4C197.8,90.8,199.3,90.8,200.3,89.9L200.3,89.9z"/>
<path class="st2" d="M92.6,86.5c-3.1-2.7-7.4-3.4-11.1-1.7C77.6,86.5,76,90,75.6,94c-0.8,8.1,1.6,17.2,6.9,23.4
	c2.8,3.4,6.9,6,11.5,5c3-0.7,1.7-5.3-1.3-4.6c-3.2,0.7-6.2-2.8-7.8-5.1c-2.2-3.3-3.6-7-4.3-10.9c-0.3-1.9-0.5-3.8-0.4-5.8
	c0-1.7,0.1-3.7,1.1-5.1c1.8-2.4,5.2-2.9,7.6-1.1c0.1,0,0.1,0.1,0.2,0.1c1,0.9,2.4,0.9,3.4,0C93.5,89,93.5,87.5,92.6,86.5L92.6,86.5z
	"/>
<path class="st2" d="M102.6,13.8C93,18.2,86.2,27.3,82.1,37c-4.2,9.9-5.5,21-5,31.6c0.1,5.8,1.1,11.5,3,16.9c0.4,1.3,1.7,2,3,1.7
	c1.3-0.4,2-1.7,1.7-3c-3.4-9.2-3.5-19.7-2.3-29.3c1.1-9.7,4.4-19.3,10.4-27c3.2-4.3,7.4-7.7,12.3-10c1.1-0.7,1.5-2.1,0.9-3.3
	C105.2,13.5,103.8,13.1,102.6,13.8L102.6,13.8z"/>
<path class="st2" d="M187.7,29.8c6.6,3.7,10.8,10.1,13.6,17c3,7.4,3.9,15.5,3.6,23.4c-0.1,5-0.8,9.9-2.1,14.7
	c-0.8,3,3.8,4.3,4.6,1.3c2.4-9.2,3-18.7,1.6-28.1c-1-8-3.8-15.6-8.2-22.3c-2.8-4.1-6.4-7.6-10.7-10C187.5,24.2,185,28.3,187.7,29.8
	L187.7,29.8z"/>
<path class="st2" d="M125.9,58.6c-7.5,0.1-13.8,4-18.6,9.6c-4.9,5.5-8,12.4-9,19.7c0,1.3,1.1,2.4,2.4,2.4c1.3,0,2.4-1.1,2.4-2.4
	c0.9-6.1,3.6-11.7,7.6-16.3c4-4.6,8.9-8.1,15.2-8.2C129,63.3,129,58.5,125.9,58.6L125.9,58.6z"/>
<path class="st2" d="M167.6,41.8c-3,0.3-5.9,1.7-8.1,3.7c-2.1,1.9-3.8,4.2-5.9,6.2c-4.4,4.2-10,7.2-16.2,6.8c-1.3,0-2.4,1.1-2.4,2.4
	c0,1.3,1.1,2.4,2.4,2.4c0,0,0,0,0,0c6.6,0.4,12.7-2.4,17.7-6.5c2.3-2,4.4-4.1,6.3-6.4c1.6-1.8,3.7-3.6,6.2-3.8
	c1.3,0,2.4-1.1,2.4-2.4C170,42.9,168.9,41.8,167.6,41.8L167.6,41.8z"/>
<path class="st3" d="M262.7,358.1c-2.3-44-5.2-89.8-7.3-131.9c-0.6-11-2.5-19.4-13.4-28.1c-1.7-1.3-3.6-2.3-5.6-3.1
	c-2.1-1.1-4.5-1.8-6.6-2.7c-13.2-5.7-25.3-11.4-39.9-17.5c-3.7-3.1-7.7-5.9-11.8-8.3c-3.7,21-28.2,90.9-32.9,102.6
	c-7.4-19.4-33-84-37.2-102.4c-6.1,3.6-12,7.8-17.4,12.4c-10.2,4.4-19.4,8.6-29.9,13.3c-3,1.3-6.4,2.1-9,4.2c0,0,0,24.7,0,37.1
	c-11-1.7-25.8-4.1-36.4-5.1c-5.8,19.1-9.9,33.3-12.4,57.1c-0.7,7-1.1,12.4,2.9,19.2c1.7,2.8,5.2,6.9,10.4,7.9
	c0.3,0.1,0.5,0.2,0.8,0.3c16.3,5,34.6-3,47.7-19.1l4.2-5.2l-0.7,11c-0.4,5.8-2.5,38.9-3.6,58.5L262.7,358.1z"/>
<path class="st0" d="M145.6,267.8c-0.2,0.5-0.3,0.9-0.5,1.2c-7.3-19.2-32.4-82.6-37.1-101.8c1.9-3.5,4.4-6.7,7.2-9.4
	c6.7,6.7,14.5,12.1,23,16c0.5,0.2,1,0.5,1.2,1c0.1,0.5,0,0.9-0.3,1.3c-0.4,0.6-0.8,1.2-1.3,1.8c3.8,0,6.5,0,10.4,0
	c-0.5-0.6-0.9-1.1-1.2-1.8c-0.2-0.4-0.3-0.8-0.3-1.3c0.2-0.5,0.7-0.8,1.2-1c8.6-3.9,16.3-9.4,23-16c2.8,2.6,5.1,5.7,7,9
	C174.2,187.5,151.3,253.2,145.6,267.8z"/>
<path class="st4" d="M134.6,204.3c0.6-4.6,0.9-7.6,0.9-7.9c0-1.1-0.2-2.1-0.5-3.2c-0.1-0.5-0.2-0.9-0.3-1.4
	c-0.6-2.4-0.9-4.1-1.4-6.5l-0.4-1.1c0.5-0.7,1.1-1.3,1.6-1.9c1.4-1.7,2.6-3.2,3.5-4.4l10.4,0c0.9,1.1,2.1,2.7,3.5,4.4
	c0.9,1.1,1.8,2.2,2.8,3.3l-0.6,1.4c-0.3,1.3-0.7,2.7-1.2,4.2c-0.7,1.8-1.1,3.7-1.2,5.6c0,1,2.8,19.5,5.5,37.3l0.2,1.2
	c-5.4,15.8-10.3,29.2-12.1,33.7c-2.8-7.3-8.2-21.1-14-36.3l0.2-1.3C132.5,221.1,133.8,211,134.6,204.3z"/>
<path class="st2" d="M136.2,198.6c5,0,9.9-0.1,14.9-0.1c1.3,0,2.4-1.1,2.4-2.4c0-1.3-1.1-2.4-2.4-2.4c-5,0-9.9,0.1-14.9,0.1
	c-1.3,0-2.4,1.1-2.4,2.4C133.8,197.6,134.9,198.6,136.2,198.6z"/>
<path class="st2" d="M130.9,185.9c0.4,1.8,0.7,3.6,1.1,5.3c0.4,1.6,1.1,3.4,1,5.1c0,1.1-0.2,2.2-0.3,3.2c-0.7,6-1.4,12-2.2,18
	c-0.6,4.6-1.1,9.1-1.7,13.7c0,1.3,1.1,2.4,2.4,2.4c1.3,0,2.4-1.1,2.4-2.4c0.9-7.7,1.9-15.4,2.8-23.2c0.5-3.9,1.2-7.8,1.4-11.7
	c-0.1-1.8-0.4-3.6-0.9-5.3c-0.5-2.1-1-4.3-1.4-6.5c-0.4-1.3-1.7-2-3-1.7C131.3,183.4,130.6,184.7,130.9,185.9L130.9,185.9z"/>
<path class="st2" d="M147.5,175.4c-2.9,0-5.9,0-8.8,0c-1.3,0-2.4,1.1-2.4,2.4c0,1.3,1.1,2.4,2.4,2.4c2.9,0,5.9,0,8.8,0
	c1.3,0,2.4-1.1,2.4-2.4C149.9,176.5,148.9,175.4,147.5,175.4z"/>
<path class="st2" d="M159.3,233.4c-1.2-7.7-2.3-15.5-3.5-23.2c-0.4-2.9-0.8-5.8-1.3-8.6c-0.1-1-0.3-2.1-0.4-3.1c0-0.2,0.1,0.4,0-0.1
	l-0.1-0.4c0-0.3-0.1-0.5-0.1-0.8c0-1.1,0.1-2.2,0.5-3.3c0.6-2.1,1.3-4.2,1.8-6.3c0.8-3-3.9-4.3-4.6-1.3c-0.9,3.4-2.6,7-2.5,10.5
	c0.1,1.5,0.4,3,0.6,4.4c0.9,6.4,1.9,12.8,2.8,19.2c0.7,4.7,1.4,9.5,2.1,14.2c0.4,1.3,1.7,2,3,1.7C158.9,236,159.7,234.7,159.3,233.4
	L159.3,233.4z"/>
<path class="st2" d="M163,195.4c5.6-5.6,9.9-12.2,14-19c1-1.7,2.1-3.4,3.1-5.1c0.7-0.8,1.1-1.7,1.3-2.7c0-1.1-0.8-2.2-1.3-3.1
	c-2-3.5-4.5-6.7-7.4-9.5c-0.9-0.9-2.4-0.9-3.4,0c-5.7,5.7-12.2,10.5-19.4,14.1c-1.5,0.8-3.5,1.3-4.7,2.6c-1.3,1.4-0.9,3.5,0,4.9
	c2,2.9,4.2,5.6,6.6,8.3c2.6,3.1,5.2,6.2,7.8,9.4C160.6,196.3,162.1,196.3,163,195.4c0.9-0.9,0.9-2.4,0-3.4c-2.6-3.2-5.2-6.3-7.8-9.4
	c-1.4-1.7-2.8-3.5-4.2-5.2c-0.5-0.6-1.9-2-1.8-2.6l-0.3,1.2c-0.1,0.2-0.4,0.2,0,0c0.3-0.1,0.6-0.3,0.8-0.4c0.5-0.2,1-0.5,1.5-0.7
	c1.1-0.5,2.1-1.1,3.2-1.7c2.2-1.2,4.4-2.6,6.5-4c4.2-2.9,8.2-6.2,11.8-9.8h-3.4c3.1,3,5.7,6.5,7.6,10.3v-2.4
	c-5.3,8.6-10.1,17.5-17.3,24.6C157.4,194.2,160.8,197.6,163,195.4z"/>
<path class="st2" d="M126.7,192c-7.2-7.2-12.1-16.1-17.3-24.6v2.4c1.9-3.9,4.5-7.4,7.6-10.3h-3.4c3.6,3.6,7.6,6.9,11.8,9.8
	c2,1.4,4.1,2.7,6.3,3.9c1,0.6,2.1,1.1,3.2,1.7c0.5,0.2,1,0.5,1.5,0.7c0.3,0.1,0.6,0.3,0.9,0.4c0.1,0,0.2,0.1,0.3,0.1
	c0.2,0.1,0.2,0.1-0.1-0.1l-0.3-1.2c0.1,0.7-1.4,2.1-1.8,2.6c-1.4,1.8-2.8,3.5-4.2,5.2c-2.6,3.1-5.2,6.2-7.8,9.4
	c-0.9,1-0.9,2.4,0,3.4c0.9,0.9,2.5,0.9,3.4,0c4.6-5.7,9.5-11.2,13.9-17c0.9-1,1.3-2.3,1.3-3.6c-0.2-2.3-2.4-3.1-4.2-3.9
	c-3.5-1.7-6.9-3.8-10.2-6c-3.8-2.6-7.3-5.5-10.5-8.8c-0.9-0.9-2.4-0.9-3.4,0c-2.9,2.8-5.4,6-7.4,9.5c-0.6,0.8-1,1.8-1.3,2.7
	c-0.2,1.2,0.6,2.1,1.2,3.1c1,1.7,2.1,3.4,3.1,5.1c4.1,6.7,8.4,13.4,14,19C125.4,197.6,128.8,194.2,126.7,192z"/>
<path class="st2" d="M52.8,198.5c2.6-2,5.7-2.7,8.6-4c3.4-1.5,6.8-3,10.2-4.6c6.7-3,13.4-6,20.2-8.9c1.1-0.7,1.5-2.1,0.9-3.3
	c-0.7-1.1-2.1-1.5-3.3-0.9c-6.7,2.9-13.5,5.9-20.2,8.9c-3.4,1.5-6.8,3.1-10.2,4.6c-2.9,1.2-6.1,2.1-8.6,4c-1.1,0.7-1.5,2.1-0.9,3.3
	C50.2,198.8,51.7,199.1,52.8,198.5L52.8,198.5z"/>
<path class="st2" d="M188.6,176.8c8.6,3.6,17,7.4,25.5,11.2c4,1.8,8.1,3.6,12.1,5.4c2,0.9,4,1.7,6,2.4c1.9,0.6,3.7,1.5,5.3,2.7
	c1.1,0.7,2.6,0.3,3.3-0.9c0.6-1.1,0.3-2.6-0.9-3.3c-3.2-2.5-7.4-3.5-11-5.1c-4.1-1.8-8.2-3.6-12.3-5.4c-8.5-3.8-17-7.6-25.5-11.2
	c-1.2-0.6-2.6-0.2-3.3,0.9C187.1,174.6,187.5,176.1,188.6,176.8L188.6,176.8z"/>
<path class="st2" d="M233.1,196.4c-2,12.4-3.9,24.7-5.7,37.1c-1.8,12.3-3.6,24.6-4.6,37.1c-0.8,9.7-1.5,19.3-2.1,29
	c0,1.3,1.1,2.4,2.4,2.4c1.3,0,2.4-1.1,2.4-2.4c1-14.9,1.8-30,3.7-44.8c1.6-12.4,3.6-25.5,5.6-38.1c1-6.3,2-12.6,3-18.9
	c0.3-1.3-0.4-2.6-1.7-3C234.8,194.4,233.5,195.1,233.1,196.4L233.1,196.4z"/>
<path class="st2" d="M56.9,244.2c1,6.6,2.7,13.1,4.1,19.6c0.8,3.6,1.6,7.2,2.3,10.8c0.2,1.1,0.5,2.2,0.7,3.3c0,0.2,0.1,0.4,0.1,0.6
	c0.1,0.6-0.1-0.8,0-0.1c0.1,1,0.3,2.1,0.4,3.1c0.9,5.9,1.3,11.9,1.3,17.9c-0.1,3.1,4.7,3.1,4.8,0c0-5.5-0.3-10.9-1.1-16.3
	c-0.3-2.9-0.7-5.7-1.2-8.6c-1.5-7.5-3.2-15-4.8-22.5c-0.6-3-1.4-6.1-1.8-9.2c-0.4-1.3-1.7-2-3-1.7C57.4,241.6,56.6,242.9,56.9,244.2
	L56.9,244.2z"/>
<path class="st2" d="M105.7,167.7c1.2,5,2.9,10,4.5,14.9c2.3,6.9,4.8,13.7,7.2,20.5c5.5,15,11.2,29.9,17,44.9
	c2.4,6.3,4.9,12.7,7.3,19c0.4,1.3,1.7,2,3,1.7c1.3-0.4,2-1.7,1.7-3c-4.9-12.6-9.8-25.3-14.6-37.9c-5.6-14.6-11.1-29.3-16.2-44.1
	c-1.9-5.6-3.9-11.3-5.3-17.1C109.6,163.4,105,164.7,105.7,167.7L105.7,167.7z"/>
<path class="st2" d="M175.7,165.8c-1,5.3-2.3,10.6-3.9,15.8c-2,7.3-4.3,14.5-6.6,21.7c-4.8,15.2-9.9,30.3-15.2,45.3
	c-2,5.7-4,11.4-6.2,17c-0.3,1.3,0.4,2.6,1.7,3c1.3,0.3,2.6-0.4,3-1.7c4.5-11.8,8.6-23.8,12.6-35.7c5.2-15.2,10.2-30.4,14.6-45.8
	c1.9-6,3.4-12.1,4.6-18.3c0.3-1.3-0.4-2.6-1.7-3C177.4,163.7,176.1,164.5,175.7,165.8L175.7,165.8z"/>
<path class="st2" d="M142.6,267.6c-3.8,9.3-5.5,19.4-4.8,29.5c0.8,11.9,1.3,23.8,2.1,35.6c0.6,8.5,1.2,16.9,2,25.3
	c0,1.3,1.1,2.4,2.4,2.4c1.3,0,2.4-1.1,2.4-2.4c-1.2-14.1-2.3-28.1-3-42.2c-0.3-5.6-0.6-11.1-1-16.7c-0.5-4.7-0.4-9.5,0.2-14.2
	c0.8-5.5,2.2-10.9,4.3-16c0.3-1.3-0.4-2.6-1.7-3C144.3,265.6,143,266.4,142.6,267.6L142.6,267.6z"/>
<path class="st2" d="M160.9,281.3c-0.7-0.3-1.4-0.6-2.2-0.8c-1-0.2-2-0.1-2.9,0.1c-1.6,0.4-3,1.3-4,2.6c-2.2,2.5-2.4,6.1-0.6,8.8
	c1.7,2.6,4.6,4.1,7.7,4.1c3.1-0.1,5.8-2.2,6.6-5.2C166.3,287.1,164.5,283.1,160.9,281.3c-1.1-0.6-2.6-0.3-3.3,0.9
	c-0.7,1.1-0.3,2.6,0.9,3.3c0.2,0.1,0.5,0.2,0.7,0.4c0.1,0.1,0.2,0.1,0.3,0.2c0.3,0.2-0.4-0.4-0.1,0c0.2,0.2,0.4,0.4,0.5,0.5
	c0.3,0.3-0.1-0.1-0.1-0.1c0,0,0.2,0.3,0.3,0.4c0.1,0.2,0.3,0.5,0.4,0.7c0.1,0.1,0.1,0.2,0.2,0.4l0,0.1c0.1,0.3,0.1,0.2,0,0
	c0.1,0.1,0.2,0.6,0.2,0.8c0.1,0.4-0.1,0.1,0,0c0,0.2,0,0.3,0,0.5c0,0.1-0.1,0.6,0,0.2c0.1-0.4-0.1,0.2-0.1,0.2
	c0,0.1-0.3,0.6-0.2,0.7c0,0,0.3-0.5,0.1-0.2c-0.1,0.1-0.1,0.2-0.2,0.3s-0.1,0.2-0.2,0.3c-0.2,0.4,0.4-0.4,0-0.1
	c-0.1,0.1-0.3,0.3-0.5,0.4c0.3-0.4,0.4-0.3,0.2-0.2c-0.1,0.1-0.2,0.1-0.3,0.2c-0.1,0-0.2,0.1-0.2,0.1c0.4-0.3,0.4-0.2,0.2-0.1
	c-0.2,0.1-0.5,0.1-0.7,0.2c-0.5,0.1,0.5,0,0.2,0c-0.1,0-0.2,0-0.3,0c-0.2,0-0.5,0-0.7,0c-0.1,0-0.2,0-0.3,0c0.5-0.1,0.4,0.1,0.1,0
	s-0.5-0.1-0.8-0.2c-0.1,0-0.2-0.1-0.4-0.1c-0.3-0.1,0.5,0.3,0.1,0c-0.2-0.1-0.4-0.2-0.6-0.3c-0.1-0.1-0.2-0.1-0.3-0.2
	c0,0,0.4,0.3,0.1,0.1c-0.2-0.2-0.5-0.4-0.7-0.6c-0.1-0.1-0.1-0.1-0.2-0.2l-0.1-0.1c-0.2-0.2-0.1-0.2,0.1,0.1c0-0.2-0.3-0.4-0.3-0.5
	c-0.1-0.2-0.2-0.3-0.3-0.5c-0.2-0.4,0.2,0.6,0.1,0.1c0-0.1-0.1-0.2-0.1-0.3c0-0.1,0-0.2-0.1-0.2l0,0.3c0-0.1,0-0.2,0-0.3
	s0-0.2,0-0.3c0,0,0-0.6,0-0.2c0,0.4,0-0.1,0-0.2c0-0.1,0-0.2,0.1-0.3c0.1-0.1,0.1-0.3,0.1-0.4c0.1,0.1-0.3,0.5,0,0
	c0-0.1,0.1-0.2,0.2-0.3s0.1-0.2,0.2-0.3c-0.2,0.3-0.3,0.3-0.1,0.2c0.2-0.2,0.4-0.4,0.6-0.6c0.1-0.1,0.2-0.1,0.2-0.2
	c-0.3,0.2-0.3,0.2-0.1,0.1c0.1,0,0.1-0.1,0.2-0.1c0.1-0.1,0.2-0.1,0.3-0.2c0.1,0,0.1-0.1,0.2-0.1c0.2-0.1,0.1,0-0.2,0.1
	c0-0.1,0.8-0.2,0.9-0.3c0.4-0.1-0.1,0.1-0.2,0c0,0,0.4,0,0.5,0c0.4-0.1-0.6-0.2-0.1,0c0.2,0,0.3,0.1,0.5,0.1
	c0.2,0.1,1.2,0.4,0.4,0.1c0.6,0.3,1.2,0.4,1.8,0.2c0.6-0.2,1.1-0.6,1.4-1.1C162.3,283.6,162.1,281.9,160.9,281.3z"/>
<path class="st2" d="M220.7,299.5c0.1,5.8,0.4,11.6,0.6,17.4c0.4,9,0.8,18,1.2,27c0.2,4.7,0.4,9.5,0.6,14.2c0.1,3.1,4.9,3.1,4.8,0
	c-0.7-16.9-1.6-33.9-2.2-50.8c-0.1-2.6-0.2-5.2-0.2-7.8C225.5,296.5,220.7,296.4,220.7,299.5L220.7,299.5z"/>
<path class="st2" d="M232.7,195.8c2.3,1.2,4.8,2.1,7,3.6c2.1,1.5,4,3.2,5.7,5.1c2.7,3,4.7,6.5,5.9,10.4c1.1,4,1.6,8.1,1.7,12.2
	c0.3,5.9,0.6,11.8,0.9,17.7c1.3,24.1,2.7,48.1,4.1,72.1c0.8,13.7,1.5,27.4,2.3,41.2c0.2,3.1,5,3.1,4.8,0
	c-1.3-24.9-2.8-49.8-4.2-74.6c-0.7-12.3-1.4-24.5-2.1-36.8c-0.3-5.9-0.6-11.8-0.9-17.7c-0.1-4.6-0.6-9.3-1.6-13.8
	c-1.2-4.8-3.5-9.3-6.7-13c-1.9-2.2-4-4.2-6.3-6c-2.5-1.9-5.4-3-8.2-4.4C232.4,190.2,230,194.3,232.7,195.8L232.7,195.8z"/>
<path class="st0" d="M61.7,177.3c0.6-2.1-0.1-4.4-1.8-5.8c-1-0.7-2.2-0.9-3.4-0.6c0.3-0.9,0.4-1.8,0.3-2.7c1.2-2.5,1.8-4.9,1.2-6.5
	c-0.5-1.8-1.8-3.2-3.5-3.9c-4.1-1.7-12.1-1.9-12.1-1.9h0c-0.9-0.2-1.8-0.1-2.6,0.1l-1.9,0.1c-0.2-2-1.5-3.8-3.4-4.5
	c-2.3-0.7-5.1,0.5-6.9,2c-1.1,1-2,2.1-2.8,3.3c-2,2.9-4.1,5.7-6.1,8.6c-3.6,5.1-7.4,10.9-6.4,17.1c0.7,4.2,3.5,9.6,5,13.6
	c2.5,6.8,6.3,11.5,6.6,19l27,6.3c0.4-2.3,0.6-4.6,2.1-6.3s2.7-4.3,4.1-6.1c2.3-2.9,2.9-6.7,1.8-10.1c-1.1-3.5-3.2-6-3-9.6
	c0.3-2.3,1.2-4.4,2.6-6.2C59.6,181.4,61.2,179.5,61.7,177.3z"/>
<path class="st2" d="M26.1,215.4c-0.2-5.3-2.2-10-4.5-14.7c-1-2.1-1.9-4.3-2.8-6.5c-0.9-2.3-2-4.6-2.9-6.9c-1-2.2-1.5-4.6-1.6-7
	c0.2-2.5,1-5,2.3-7.2c2.7-5,6.4-9.6,9.7-14.2c1.5-2.1,3.2-4.4,6-4.9c2.1-0.3,3.3,1.4,3.1,3.4c-0.2,2.1,2.7,3.2,4.1,1.7
	c1.1-1.2,3.1-0.8,4.4,0s1.3,3.2,1,4.7c-0.4,2,1.7,3.9,3.5,2.7c1.6-1,3.1-1.5,4.7-0.1c1.2,1,1.6,2.6,1,4c-0.6,1.9,1.3,3.3,3,3
	c0.2,0,0.4-0.1,0.6-0.1c0.2,0,0.7,0.1,0.6,0.1s0.4,0.4,0.5,0.6c0.2,0.2,0.3,0.5,0.5,0.8c0.6,1.5-0.1,3-0.9,4.2c-2,3.2-4.5,6-5,9.9
	c-0.5,3.8,1.5,6.8,2.8,10.2c0.6,1.5,0.8,3.2,0.7,4.8c-0.3,1.7-1.1,3.3-2.2,4.6c-1.2,1.6-2,3.5-3.3,5c-1.4,1.6-2.3,3.6-2.7,5.7
	c-0.3,1.3,0.4,2.6,1.7,3c1.3,0.3,2.6-0.4,3-1.7c0.1-0.8,0.4-1.7,0.7-2.4c0.6-0.9,1.2-1.8,1.9-2.6c1.2-1.6,2.1-3.4,3.3-5
	c2.5-3.5,3.2-8.1,1.7-12.2c-1.2-3.4-3.8-6.7-2.4-10.4c1.5-3.9,5.1-6.5,5.7-10.8c0.3-2.4-0.5-4.7-2.1-6.5c-1.7-1.9-3.9-2.2-6.3-1.7
	l3,3c1-3.2,0-6.7-2.6-8.9c-3.1-2.6-6.9-2.4-10.2-0.4l3.5,2.7c0.8-3.6,0.2-8-3.2-10.1c-3.1-2-7.6-2.1-10.2,0.7l4.1,1.7
	c0.2-2.9-1.1-5.6-3.5-7.2c-2.6-1.6-5.8-1.1-8.4,0.2c-2.9,1.5-4.7,4.1-6.5,6.7c-1.9,2.7-3.9,5.4-5.8,8.1c-3.4,4.9-6.9,10.6-6.4,16.8
	c0.5,5.6,3.4,10.7,5.4,15.9c2.3,5.8,5.9,11.2,6.2,17.6C21.5,218.5,26.3,218.5,26.1,215.4L26.1,215.4z"/>
<path class="st2" d="M27.5,174.9c2.1-3.4,4.3-6.6,6.8-9.7c0.6-0.8,1.2-1.5,1.7-2.3c0.3-0.4,0.6-0.7,0.8-1.1c0.3-0.4-0.3,0.3,0,0
	c0.1-0.1,0.2-0.2,0.3-0.4c1-1.1,2.1-2,3.4-2.7c1.1-0.7,1.5-2.1,0.9-3.3c-0.7-1.1-2.1-1.5-3.3-0.9c-1.5,0.9-2.9,2-4.2,3.2
	c-1.3,1.4-2.5,3-3.5,4.5c-2.6,3.3-4.9,6.7-7.1,10.2c-0.7,1.1-0.3,2.6,0.9,3.3C25.4,176.4,26.9,176,27.5,174.9L27.5,174.9z"/>
<path class="st2" d="M39.4,178.6c1.3-2.3,2.8-4.5,4.3-6.7c0.2-0.3,0.4-0.5,0.6-0.8c0.1-0.1,0.2-0.3,0.1-0.1c0.1-0.1,0.2-0.2,0.3-0.4
	c0.4-0.5,0.8-1,1.3-1.5c0.9-1,1.8-2,2.8-3c0.9-0.9,1-2.4,0-3.4c-0.9-0.9-2.4-1-3.4,0c0,0,0,0,0,0c-3.9,4-7.3,8.5-10,13.4
	c-0.7,1.1-0.3,2.6,0.9,3.3C37.3,180.1,38.7,179.7,39.4,178.6L39.4,178.6L39.4,178.6z"/>
<path class="st2" d="M49.4,182.6c0.6-0.9,1.2-1.8,1.8-2.6c0.3-0.4,0.6-0.8,0.9-1.3c0.1-0.2,0.3-0.4,0.5-0.6c0.1-0.1,0.2-0.2,0.3-0.3
	s0.4-0.4,0,0c0.7-0.7,1.3-1.6,2-2.3c0.7-0.8,1.5-1.5,2.4-2.2c0.9-0.9,0.9-2.5,0-3.4c-1-0.9-2.4-0.9-3.4,0c-3.5,2.9-6,6.7-8.4,10.4
	c-0.7,1.1-0.3,2.6,0.9,3.3C47.3,184,48.7,183.7,49.4,182.6L49.4,182.6z"/>
<path class="st0" d="M20.2,217.1c-0.7,3.3-1.6,7.6-2.5,11.5c10.7,1.2,24.6,3.4,34.9,5c0.1,1.9,1.8-11.4,2.2-13.4
	c-1.3-0.2-25.2-3.5-34.2-4.6C20.4,216.1,20.3,216.6,20.2,217.1z"/>
<path class="st2" d="M42.5,158.3c0.9,0,1.9,0,2.8,0c0.5,0,1.1,0.1,1.6,0.1c0.2,0,0.5,0,0.7,0.1c0.1,0,0.6,0.1,0.3,0
	c2,0.2,3.9,0.8,5.8,1.6c0.2,0.1,0.3,0.2,0.5,0.3c0,0,0.6,0.4,0.2,0.1c0.1,0.1,0.3,0.2,0.4,0.3c0.1,0.1,0.5,0.5,0.3,0.3
	c-0.2-0.2,0.2,0.2,0.2,0.3c0.1,0.2,0.2,0.4,0.3,0.6c0.2,0.4-0.1-0.3,0.1,0.2c0.1,0.2,0.1,0.3,0.2,0.5s0.1,0.3,0.1,0.5
	c-0.1-0.5,0,0,0,0.2c0,0.2,0,0.4,0,0.6c0-0.4,0-0.1,0,0.1c-0.2,0.9-0.5,1.7-0.9,2.5c-0.6,1.1-0.3,2.6,0.9,3.3
	c1.1,0.7,2.6,0.3,3.3-0.9c1.1-2.2,1.9-4.6,1.5-7.1c-0.5-2.3-1.8-4.2-3.7-5.5c-1.1-0.6-2.2-1.2-3.5-1.5c-1.2-0.4-2.3-0.7-3.5-0.9
	c-2.5-0.4-4.9-0.5-7.4-0.5c-1.3,0-2.4,1.1-2.4,2.4C40.1,157.3,41.1,158.3,42.5,158.3z"/>
<path class="st2" d="M55,234.1c1-4.4,1.3-8.9,2.1-13.3c0.3-1.3-0.4-2.6-1.7-3c-3.2-0.6-6.5-0.9-9.8-1.4c-5.8-0.8-11.5-1.6-17.3-2.3
	c-2.6-0.3-5.3-0.7-7.9-1c-1.1,0-2,0.7-2.3,1.8c-1,4.2-1.8,8.5-2.8,12.7c-0.7,3,3.9,4.3,4.6,1.3c1-4.2,1.8-8.5,2.8-12.7l-2.3,1.8
	c10,1.2,19.9,2.6,29.8,4c1.3,0.2,2.5,0.3,3.8,0.6l-1.7-3c-0.8,4.4-1.1,8.9-2.1,13.3C49.7,235.9,54.3,237.2,55,234.1L55,234.1z"/>
<path class="st2" d="M62.9,292c-5.9,7.2-13.3,13.6-22.1,17.1c-3.9,1.6-8.1,2.6-12.4,2.8c-2,0.1-3.9,0-5.9-0.2
	c-2.2-0.4-4.3-0.9-6.4-1.5c-3.8-0.9-6.8-3.8-8.6-7c-2.5-4.3-3-8.8-2.7-13.6c0.8-10.2,2.2-20.3,4.4-30.3c2.2-10.2,5.2-20.2,8.2-30.1
	l-2.3,1.8c13.1,1.3,26.2,3.6,39.2,5.6l-1.8-2.3c-1.1,9.7-2.2,19.6-3.6,29.2c-0.4,3-0.9,6-1.5,9c-0.3,1.3,0.4,2.6,1.7,3
	c1.3,0.3,2.6-0.4,3-1.7c2.3-11.8,3.5-23.8,4.8-35.8c0.1-1.2,0.3-2.5,0.4-3.7c0-1.1-0.7-2-1.8-2.3c-13.5-2.1-26.9-4.4-40.5-5.7
	c-1.1,0-2,0.7-2.3,1.8c-2.8,9.3-5.6,18.6-7.7,28.1c-2.4,10.6-4,21.4-5,32.2c-0.5,5.4-0.1,10.5,2.2,15.4c1.8,4.2,5,7.7,9,9.9
	c2.3,1.1,4.7,1.9,7.2,2.4c2.3,0.5,4.6,0.8,6.9,0.9c4.5,0.2,9-0.4,13.3-1.8c11-3.4,20.4-10.7,27.6-19.5c0.9-1,0.9-2.4,0-3.4
	C65.4,291.1,63.9,291.1,62.9,292L62.9,292z"/>
<path class="st2" d="M66.9,358c1-17,2.1-34.1,3.2-51.1l0.5-7.3c0-1.3-1.1-2.4-2.4-2.4s-2.4,1.1-2.4,2.4l0,0
	c-0.9,14.7-1.9,29.3-2.8,44c-0.3,4.8-0.6,9.6-0.9,14.5C61.9,361.1,66.7,361.1,66.9,358L66.9,358z"/>
<path class="st2" d="M105.1,164.4c-2.3,1.4-4.5,3.1-6.5,4.9c-2.7,2.2-5.3,4.5-7.9,6.9c-2.2,2-4.3,4.1-6.2,6.4
	c-0.7,0.8-1.3,1.8-1.7,2.8c-0.4,1.5,0.2,2.4,1.1,3.5c2.8,4.1,5.9,8,9.3,11.7v-3.4c-2.1,1.8-4.1,3.8-5.9,6c-1,1.3-2.2,3-1.8,4.7
	c0.4,1.1,0.9,2.2,1.5,3.2c2.4,4.2,5.2,8.2,7.9,12.2c7.8,11.4,15.9,22.7,24.4,33.7c3.2,4.1,6.3,8.4,10,12c2.2,2.1,5.6-1.2,3.4-3.4
	c-2.9-3-5.6-6.2-8.1-9.6c-1.7-2.2-3.5-4.5-5.4-7c-2.1-2.8-4.1-5.5-6.2-8.3c-7.2-9.8-14.4-19.8-20.8-30.1c-0.5-0.8-1-1.6-1.4-2.4
	c-0.2-0.3-0.3-0.6-0.5-0.9c-0.1-0.2-0.4-0.9-0.2-0.4c0.2,0.5,0-0.1-0.1-0.2c0-0.5,0.1,1.1,0,0.9c0-0.1,0.2-0.3,0,0
	c0.2-0.2,0.3-0.5,0.4-0.7c1.5-2.4,4-4.4,6.1-6.2c0.9-0.9,0.9-2.5,0-3.4c-2.7-2.9-5.2-6-7.5-9.3c-0.5-0.6-0.9-1.3-1.4-1.9
	c0-0.1-0.5-0.6-0.5-0.6c0,0,0.3,1.1,0.3,1c0-0.3-0.1,0.7,0,0.4c0.1-0.4-0.3,0.4-0.1,0.2c0.1-0.1,0.2-0.3,0.2-0.4
	c0.1-0.2,0.2-0.3,0.3-0.5c0.3-0.5-0.2,0.3,0.2-0.3c4-4.5,8.4-8.7,13.2-12.5c0.7-0.5,1.3-1.1,2-1.6c0.3-0.2,0.6-0.5,0.9-0.7
	c0.3-0.2-0.3,0.2,0,0c0.2-0.1,0.3-0.3,0.5-0.4c0.9-0.7,1.8-1.3,2.8-1.9C110.2,167,107.8,162.8,105.1,164.4L105.1,164.4z"/>
<path class="st2" d="M177.3,168.1c0.9,0.5,1.7,1.1,2.5,1.6c0.5,0.3,1,0.7,1.4,1.1c0.5,0.4,1.2,0.9,1.5,1.1c2.7,2.1,5.3,4.2,7.8,6.4
	c2.3,1.9,4.5,4,6.5,6.1c0.4,0.4,0.7,0.8,1,1.2c0.4,0.5-0.2-0.3,0.1,0.1c0.1,0.2,0.2,0.3,0.3,0.5c0.2,0.2,0.2,0.7,0-0.1
	c0.2,0.5,0-0.4,0-0.6c0-0.4,0.5-0.9,0-0.4c-0.1,0.1-0.2,0.3-0.5,0.6c-2.9,3.6-5.9,7-9.1,10.3c-0.9,0.9-0.9,2.5,0,3.4
	c2.1,1.7,4,3.6,5.8,5.6c0.3,0.3,0.5,0.6,0.7,0.9c0.1,0.2,0.2,0.4,0.4,0.6c0.2,0.3,0,0,0,0l0.1,0.2l0-0.4c0,0,0,0,0,0.1
	c0-0.7,0.2-0.7,0-0.4c-0.1,0.2-0.1,0.3-0.2,0.5c-0.2,0.7,0.2-0.5-0.1,0.2c-0.3,0.6-0.6,1.2-0.9,1.8c-2.2,4.3-4.6,8.5-7,12.6
	c-6.6,11.3-13.4,22.6-20.4,33.6c-1.5,2.4-3,4.7-4.6,7c-0.6,0.9-1.2,1.8-1.8,2.6c-0.2,0.3-0.5,0.7-0.7,1c-0.1,0.1-0.2,0.3-0.3,0.4
	c-0.4,0.6,0.3-0.4,0,0c-0.9,1-0.9,2.4,0,3.4c0.9,0.9,2.5,0.9,3.4,0c2.6-3.3,4.9-7,7.2-10.5c3.5-5.5,7-11.1,10.4-16.7
	c6.2-10.1,12.5-20.3,17.9-30.9c0.7-1.2,1.3-2.6,1.7-3.9c0.4-1.8-0.7-3.4-1.8-4.7c-1.9-2.3-4.1-4.5-6.5-6.4v3.4
	c3-3.2,5.9-6.5,8.7-9.9c1.1-1.3,2.5-2.6,2.1-4.5c-0.3-1-0.8-1.9-1.5-2.6c-1.8-2.1-3.8-4.1-5.9-5.9c-2.7-2.5-5.6-4.8-8.4-7.1
	c-2.4-2-4.9-3.9-7.6-5.6C177.1,162.4,174.6,166.6,177.3,168.1L177.3,168.1z"/>
<path class="st2" d="M134.5,130.2c3,3,7.8,3.8,11.8,3.8s8.8-0.9,11.8-3.8c2.2-2.2-1.2-5.6-3.4-3.4c-0.1,0.1-0.6,0.5-0.3,0.3
	c0.3-0.2-0.4,0.2-0.5,0.3c-0.3,0.2-0.5,0.3-0.8,0.4c-0.2,0.1-0.4,0.2-0.6,0.3c0.3-0.1,0,0-0.2,0.1c-2,0.7-4,1-6.1,1
	c-2,0-4.1-0.3-6-1c0,0-0.7-0.3-0.3-0.1c-0.2-0.1-0.3-0.1-0.5-0.2c-0.3-0.2-0.6-0.3-0.9-0.5c-0.2-0.1-0.4-0.3-0.6-0.4
	c0.6,0.4,0,0-0.2-0.2C135.6,124.7,132.2,128,134.5,130.2L134.5,130.2z"/>
<path class="st2" d="M145.7,107.9c0.5,1.7,0.9,3.5,1.1,5.2l-0.1-0.6c0,0.2,0,0.5,0,0.7l0.1-0.6c0,0.1,0,0.2-0.1,0.3l0.2-0.6
	c0,0.1-0.1,0.1-0.1,0.2l0.4-0.5c-0.1,0.1-0.1,0.1-0.2,0.2l0.5-0.4c-0.1,0.1-0.3,0.2-0.4,0.2l0.6-0.2c-0.2,0.1-0.5,0.2-0.7,0.2
	l0.6-0.1c-0.2,0-0.4,0-0.7,0l0.6,0.1c-0.2,0-0.5-0.1-0.7-0.1c-0.6-0.1-1.3-0.1-1.8,0.2c-1.1,0.7-1.5,2.1-0.9,3.3c0,0,0,0,0,0
	c0.3,0.5,0.8,0.9,1.4,1.1c0.5,0.1,1.1,0.2,1.6,0.2c0.8,0,1.6-0.2,2.3-0.6c0.9-0.4,1.6-1.2,1.9-2.2c0.2-0.8,0.2-1.6,0-2.4
	c-0.3-1.7-0.7-3.4-1.1-5c-0.4-1.3-1.7-2-3-1.7C146.1,105.3,145.4,106.6,145.7,107.9L145.7,107.9z"/>
<path class="st2" d="M118.1,93.3c-0.9,2.8-0.3,9.2,5,9.7c6.9,0,7.3-7.8,5-11.4C126.2,88.7,120.5,87.4,118.1,93.3z"/>
<path class="st2" d="M173.5,93.3c0.9,2.8,0.3,9.2-5,9.7c-6.9,0-7.3-7.8-5-11.4C165.5,88.7,171.1,87.4,173.5,93.3z"/>
</svg>
