<?xml version="1.0" encoding="utf-8"?>
<!-- Generator: Adobe Illustrator 26.0.0, SVG Export Plug-In . SVG Version: 6.00 Build 0)  -->
<svg version="1.1" id="レイヤー_1" xmlns="http://www.w3.org/2000/svg" xmlns:xlink="http://www.w3.org/1999/xlink" x="0px"
	 y="0px" viewBox="0 0 407.3 283" style="enable-background:new 0 0 407.3 283;" xml:space="preserve">
<style type="text/css">
	.st0{fill:#FFFFFF;}
	.st1{fill:#211715;}
	.st2{fill:#D9D9D9;}
	.st3{fill:#3F88C9;}
	.st4{font-family:'Arial-Black';}
	.st5{font-size:64.6248px;}
</style>
<path class="st0" d="M390,240.8c0,0.1-0.1,0.2-0.2,0.1c-0.1,0-0.1-0.1-0.1-0.1c-0.8-3.2-2.3-8.5-4.8-10.8c-2.8-2.3-6.1-3.9-9.7-4.4
	c-0.1,0-0.2-0.1-0.2-0.2c0-0.1,0.1-0.2,0.2-0.2c4.3-0.6,7.9-1.9,10.6-5.3c2.5-3.1,3.3-6.3,3.7-10c0-0.1,0.1-0.2,0.2-0.2
	c0.1,0,0.2,0.1,0.2,0.1c0.8,3.4,2.6,8.2,4.3,10.3c2.5,3.1,5.7,4.1,10.8,5c0.1,0,0.2,0.1,0.2,0.2s-0.1,0.2-0.2,0.2
	c-4,0.3-7.7,2-10.5,4.8C391.7,232.6,390.5,238.6,390,240.8z"/>
<path class="st0" d="M17.4,33.4c0,0.1-0.1,0.2-0.2,0.1c-0.1,0-0.1-0.1-0.1-0.1c-0.8-3.2-2.3-8.5-4.8-10.8c-2.8-2.3-6.1-3.9-9.7-4.4
	c-0.1,0-0.2-0.1-0.2-0.2c0-0.1,0.1-0.2,0.2-0.2c4.3-0.6,7.9-1.9,10.6-5.3c2.5-3.1,3.3-6.3,3.7-10c0-0.1,0.1-0.2,0.2-0.2
	c0.1,0,0.2,0.1,0.2,0.1c0.8,3.4,2.6,8.2,4.3,10.3c2.5,3.1,5.7,4.1,10.8,5c0.1,0,0.2,0.1,0.2,0.2c0,0.1-0.1,0.2-0.2,0.2
	c-4,0.3-7.7,2-10.5,4.8C19.2,25.3,18,31.2,17.4,33.4z"/>
<path class="st1" d="M388.3,239.1l-0.1,0.1l1.7-0.7h-0.2l1.7,0.7l-0.1-0.1l0.6,1.1c-0.9-3.8-2.1-8-4.7-11.1c-1.4-1.5-3-2.8-4.9-3.6
	c-1-0.5-2.1-0.9-3.2-1.3c-0.6-0.2-1.1-0.4-1.7-0.5c-0.3-0.1-1.3-0.2-1.3-0.2l1.2,2.1v-0.2l-1.2,2.1c0,0,0.9-0.1,1.1-0.1
	c0.5-0.1,1-0.2,1.5-0.3c1-0.3,2-0.6,3-1c1.9-0.8,3.6-2,5-3.5c3.2-3.5,4.5-7.8,5-12.4l-0.3,1.2l0.1-0.2l-2.1,1.2l0.2,0l-1.7-0.7
	l0.1,0.1l-0.6-1.1c1,4.1,2.5,8.6,5.3,11.8c2.9,3.3,7.3,4.4,11.4,5.2l-1.1-0.6l0.2,0.1l-0.7-1.7l0,0.2l1.2-2.1l-0.2,0.1l1.2-0.3
	c-4.7,0.5-9.7,2.4-12.8,6.1c-2.5,3-3.4,7.1-4.3,10.9c-0.7,3,3.9,4.3,4.6,1.3c0.5-2.7,1.3-5.3,2.5-7.8c1.3-2.4,4.4-4.3,7.1-5.1
	c1.8-0.5,4.8-0.2,5.4-2.4c0.3-1.2-0.2-2.4-1.2-3c-1-0.4-2.1-0.7-3.2-0.8c-2.7-0.6-5.5-1.6-7.1-3.9c-0.9-1.3-1.6-2.8-2.1-4.3
	c-0.3-0.8-0.6-1.7-0.9-2.5c-0.2-0.9-0.5-1.8-0.8-2.7c-0.4-1-1.4-1.6-2.5-1.6c-1.8,0.1-2.4,1.5-2.5,3c-0.2,1.7-0.6,3.3-1.2,4.9
	c-1.3,3.2-3.9,5.7-7.2,6.8c-0.8,0.3-1.7,0.5-2.5,0.6c-1.1,0.2-2.2,0.3-2.9,1.2c-0.8,1.1-0.6,2.6,0.4,3.5c0.9,0.5,1.9,0.8,2.9,0.9
	c2,0.5,3.9,1.3,5.6,2.4c1.3,0.9,2.4,2.2,3,3.7c0.8,1.7,1.4,3.5,1.9,5.4c0.1,1,0.5,2,1.1,2.8c1,1,2.6,1,3.6,0c0,0,0.1-0.1,0.1-0.1
	c0.9-1,0.9-2.4,0-3.4C390.8,238.1,389.2,238.1,388.3,239.1z"/>
<path class="st1" d="M15.7,31.7l-0.1,0.1l1.7-0.7h-0.2l1.7,0.7l-0.1-0.1l0.6,1.1c-0.9-3.8-2.1-8-4.7-11.1c-1.4-1.5-3-2.8-4.9-3.6
	c-1-0.5-2.1-0.9-3.2-1.3c-0.6-0.2-1.1-0.4-1.7-0.5c-0.3-0.1-1.3-0.2-1.3-0.2l1.2,2.1V18L3.6,20c0,0,0.9-0.1,1.1-0.1
	c0.5-0.1,1-0.2,1.5-0.3c1-0.3,2-0.6,3-1c1.9-0.8,3.6-2,5-3.5c3.2-3.5,4.5-7.8,5-12.4l-0.3,1.2L19,3.6l-2.1,1.2l0.2,0l-1.7-0.7
	l0.1,0.1l-0.6-1.1c1,4.1,2.5,8.6,5.3,11.8c2.9,3.3,7.3,4.4,11.4,5.2l-1.1-0.6l0.2,0.1L30,17.9l0,0.2l1.2-2.1L31,16.1l1.2-0.3
	c-4.7,0.5-9.7,2.4-12.8,6.1c-2.5,3-3.4,7.1-4.3,10.9c-0.7,3,3.9,4.3,4.6,1.3c0.5-2.7,1.3-5.3,2.5-7.8c1.3-2.4,4.4-4.3,7.1-5.1
	c1.8-0.5,4.8-0.2,5.4-2.4c0.3-1.2-0.2-2.4-1.2-3c-1-0.4-2.1-0.7-3.2-0.8c-2.7-0.6-5.5-1.6-7.1-3.9c-0.9-1.3-1.6-2.8-2.1-4.3
	c-0.3-0.8-0.6-1.7-0.9-2.5c-0.2-0.9-0.5-1.8-0.8-2.7C19,0.6,18,0,16.9,0c-1.8,0.1-2.4,1.5-2.5,3c-0.2,1.7-0.6,3.3-1.2,4.9
	c-1.3,3.2-3.9,5.7-7.2,6.8c-0.8,0.3-1.7,0.5-2.5,0.6c-1.1,0.2-2.2,0.3-2.9,1.2c-0.8,1.1-0.6,2.7,0.4,3.5c0.9,0.5,1.9,0.8,2.9,0.9
	c2,0.5,3.9,1.3,5.6,2.4c1.3,0.9,2.4,2.2,3,3.7c0.8,1.7,1.4,3.5,1.9,5.4c0.1,1,0.5,2,1.1,2.8c1,1,2.6,1,3.6,0c0,0,0.1-0.1,0.1-0.1
	c0.9-1,0.9-2.4,0-3.4C18.2,30.8,16.7,30.8,15.7,31.7z"/>
<path class="st0" d="M53.7,30.3c2.7-1.7,5.8-2.7,9.1-2.7c54.1,0,217.3,0,274,0c9.2,0,16.7,7.5,16.7,16.7c0,0,0,0,0,0
	c0,33.6,0.1,112.9,0.1,157.8h-0.3c-4.7,0.3-283.2,0.5-306.7,0.5h-0.1C46.4,158.7,46.2,81,46.1,44.3C46.1,38.6,49,33.3,53.7,30.3z"/>
<path class="st0" d="M163.3,280.6H151c-2.6,0-2.8-6.9-2-8.6s2.4-2.8,5.1-3.3c9.4-1.8,11.7-6.9,12.5-15.9c0.3-3.9,0.7-6.2,0.9-10.1
	c0.1-2.5,0.3-5.3,0.7-9c20.8,0,42.4,0,63.3-0.1c0.4,3.8,0.6,6.6,0.7,9.1c0.2,3.8,0.5,6.2,0.9,10.1c0.8,9,3.1,14.1,12.5,15.9
	c2.7,0.5,4.3,1.6,5.1,3.3s0.9,8.6-1.8,8.6C244.9,280.6,189,280.6,163.3,280.6z"/>
<path class="st2" d="M55.7,231.8c2.3,1.2,4.9,1.8,7.4,1.8c53.4,0.2,219.1-0.1,273.8-0.2c9.2,0,16.7-7.5,16.7-16.7
	c0-4.3,0-9.1,0-14.5h-0.3c-4.7,0.3-283.2,0.5-306.7,0.5h-0.1c0,5.3,0,10.1,0,14.3C46.5,223.2,50.1,229,55.7,231.8z"/>
<path class="st0" d="M171.2,280.6H151c-2.6,0-2.8-6.9-2-8.6s2.4-2.8,5.1-3.3c2.2-0.4,4.3-1.1,6.2-2.2c21.2,0,58.5,0,79,0
	c1.9,1.1,4,1.9,6.2,2.2c2.7,0.5,4.3,1.6,5.1,3.3s0.9,8.6-1.8,8.6L171.2,280.6z"/>
<path class="st1" d="M229.1,234.7c0.6,5.9,0.9,11.7,1.4,17.6c0.4,4.2,0.9,8.8,3.4,12.3c2.6,3.7,6.6,5.4,10.9,6.3
	c0.9,0.1,1.8,0.5,2.7,1c0.3,0.2,0.6,0.6,0.8,0.9c0.2,0.2,0.2,0.7,0.1,0.1c0,0.2,0.1,0.3,0.1,0.5c0,0.2,0.1,0.4,0.1,0.6
	c-0.1-0.5,0,0,0,0.2c0,0.5,0.1,0.9,0.1,1.4c0,0.8-0.1,1.6-0.3,2.4c-0.1,0.2-0.1,0.6-0.3,0.6l0.2-0.2l-0.1,0.1l0.2-0.2
	c-0.2,0.1-0.2,0.1,0.1,0c0.3-0.2,0.3,0-0.1,0c-0.5,0-0.9,0-1.4,0h-5h-16.5l-44.2,0h-19c-3.6,0-7.3-0.1-10.9,0c-0.4,0-0.6-0.2-0.2,0
	c0.3,0.2,0.3,0,0.4,0.3c-0.1-0.2-0.2-0.4-0.3-0.5c0.2,0.4,0-0.2-0.1-0.3c-0.2-0.7-0.3-1.4-0.3-2.2c0-0.4,0-0.8,0-1.3
	c0-0.2,0-0.5,0-0.7c0.1-0.6-0.1,0.3,0-0.2c0-0.2,0.3-0.8,0.1-0.4c0.2-0.4,0.4-0.7,0.7-0.9c0.9-0.6,2-1,3.1-1.1
	c2.2-0.4,4.4-1.2,6.3-2.3c3.4-2.1,5.8-5.6,6.6-9.5c0.5-2.4,0.9-4.8,1-7.3c0.3-2.9,0.6-5.8,0.8-8.7c0.2-2.8,0.4-5.6,0.6-8.4
	c0-1.3-1.1-2.4-2.4-2.4c-1.3,0-2.4,1.1-2.4,2.4c-0.6,6-0.9,12-1.5,18.1c-0.1,2.1-0.5,4.2-1.1,6.2c-0.4,1.5-1.3,2.9-2.4,4.1
	c-0.5,0.5-1.1,1-1.7,1.3c-0.9,0.5-1.9,1-2.9,1.2c-2.6,0.8-5.3,1-7.4,2.8c-3,2.6-3,7.6-1.7,11.1c0.7,1.9,2.1,3.3,4.2,3.4
	c0.5,0,1,0,1.6,0h5.4h17.4l45.6,0h18.4c3,0,6.1,0.1,9.2,0c4.5-0.2,5-5.8,4.6-9.3c-0.1-2.1-1.1-4.1-2.7-5.4c-2.2-1.8-4.9-1.9-7.5-2.7
	c-1.7-0.5-3.2-1.4-4.5-2.6c-1.1-1.2-1.9-2.6-2.3-4.2c-0.6-2.1-0.9-4.3-1.1-6.5c-0.3-3-0.6-5.9-0.8-8.9c-0.2-2.9-0.4-5.8-0.6-8.7
	c0-1.3-1.1-2.4-2.4-2.4C230.2,232.3,229.2,233.3,229.1,234.7L229.1,234.7z"/>
<path class="st1" d="M171.8,268.8h56.1c3.1,0,3.1-4.8,0-4.8h-56.1C168.7,264,168.7,268.8,171.8,268.8z"/>
<path class="st1" d="M43.7,44.3c0,16.2,0.1,32.4,0.1,48.6c0.1,19.7,0.1,39.5,0.2,59.2c0,17.5,0.1,35.1,0.1,52.6l0,10
	c0,4.6,0.6,8.9,3.3,12.8c2.7,4,6.8,6.8,11.5,7.9c3.1,0.7,6.3,0.5,9.5,0.5c12.8,0,25.6,0.1,38.4,0c16.7,0,33.3,0,50,0
	c18.4,0,36.8,0,55.1-0.1c17.9,0,35.9-0.1,53.8-0.1c15.4,0,30.8-0.1,46.1-0.1l18,0c2.7,0,5.4,0.1,8.1,0c4.9-0.3,9.5-2.4,12.8-6
	c3.3-3.6,5.2-8.4,5.2-13.3c0-3.2,0-6.4,0-9.7c0-7.9,0-15.7,0-23.6l0-57.1c0-18.4,0-36.9,0-55.3c0-7.2,0-14.5,0-21.7
	c0-3.9,0.2-7.7-1.2-11.4c-1.7-4.5-5.1-8.2-9.4-10.4c-6-2.9-13.4-2-19.9-2h-19.7l-48.4,0l-55.1,0l-55.2,0l-48.8,0H78h-8.6
	c-2.7,0-5.6-0.2-8.3,0.1C51.3,26.3,43.8,34.5,43.7,44.3c0,3.1,4.8,3.1,4.8,0c0-4.4,2-8.6,5.5-11.3c3.2-2.5,6.8-3,10.7-3h16.6l43.6,0
	l52.3,0l55.1,0l51.4,0l41.8,0h8.2c3.6,0,7,0,10.3,1.9c3.8,2.2,6.4,6,7.1,10.3c0.5,3.1,0.1,6.4,0.1,9.5c0,16.2,0,32.3,0,48.5l0,57.5
	c0,16.6,0,33.3,0,49.9c0,3.3,0.1,6.6,0,9.9c-0.3,4.2-2.4,8.2-5.8,10.7c-5.2,3.8-12.3,2.8-18.5,2.8l-40.2,0.1
	c-16.8,0-33.5,0.1-50.3,0.1c-18.1,0-36.2,0.1-54.3,0.1c-17.5,0-35,0-52.4,0c-14.7,0-29.5,0-44.2,0c-5.7,0-11.3,0-17,0
	c-2.8,0-5.8,0.3-8.6-0.4c-4.2-1-7.7-3.9-9.6-7.9c-1.6-3.4-1.3-7.2-1.3-10.9c0-3.4,0-6.8,0-10.2c0-8.2,0-16.5-0.1-24.7
	c0-19.2-0.1-38.4-0.2-57.6c0-18.2-0.1-36.4-0.1-54.6c0-6.9,0-13.7,0-20.6C48.5,41.2,43.7,41.2,43.7,44.3z"/>
<path class="st1" d="M46.5,205.1c4.5,0,9.1,0,13.6,0c8.5,0,16.9,0,25.4,0c11.3,0,22.7,0,34,0c13.3,0,26.6,0,39.9,0
	c14.2,0,28.4,0,42.5-0.1c14.1,0,28.2,0,42.3-0.1c13.1,0,26.1,0,39.2-0.1c11,0,22,0,33.1-0.1c8,0,16,0,24.1-0.1c4,0,7.9,0,11.9-0.1
	c0.4,0,0.7,0,1.1,0c3.1,0,3.1-4.8,0-4.8c-2.9,0-5.9,0.1-8.8,0.1c-7.1,0-14.3,0.1-21.4,0.1c-10.4,0-20.7,0.1-31.1,0.1
	c-12.7,0-25.4,0-38.1,0.1c-14,0-27.9,0-41.8,0.1c-14.3,0-28.5,0-42.8,0.1l-40.7,0l-35.7,0c-9.3,0-18.5,0-27.8,0
	c-5.6,0-11.2,0-16.7,0h-2.1C43.4,200.3,43.4,205.1,46.5,205.1L46.5,205.1z"/>
<path class="st1" d="M206.5,218.3c0.1,3.4-2.7,6.2-6.1,6.3c-0.2,0-0.3,0-0.5,0c-4.4,0-6.7-3-6.7-6.3c0-3.5,2.8-6.4,6.3-6.5
	c0.1,0,0.1,0,0.2,0C203.3,211.7,206.3,214.6,206.5,218.3z"/>
<text transform="matrix(1 0 0 1 117.2303 149.2639)" class="st3 st4 st5">NEW</text>
</svg>
