<?xml version="1.0" encoding="utf-8"?>
<!-- Generator: Adobe Illustrator 26.0.0, SVG Export Plug-In . SVG Version: 6.00 Build 0)  -->
<svg version="1.1" id="レイヤー_1" xmlns="http://www.w3.org/2000/svg" xmlns:xlink="http://www.w3.org/1999/xlink" x="0px"
	 y="0px" viewBox="0 0 341.9 334" style="enable-background:new 0 0 341.9 334;" xml:space="preserve">
<style type="text/css">
	.st0{fill:#211715;}
	.st1{fill:#FFFFFF;}
	.st2{fill:#8CB8DF;}
	.st3{fill:#65A0D4;}
	.st4{fill:#3F88C9;}
	.st5{fill:#7A7473;}
	.st6{fill:#CFCFCF;}
</style>
<path class="st0" d="M143,68.9c0-11.2,0-22.4,0-33.6c0-1.1-0.9-2-2.1-2c-0.3,0-0.7,0.1-1,0.3L93.5,60.3L49.3,85.8L29.6,97.2
	c-0.6,0.4-1,1-1,1.7c0,15,0,30.1,0,45.1c0,18.4,0,36.8,0,55.2c0,11.3,0,22.6,0,33.8c0,1.1,0.9,2,2.1,2c0.3,0,0.7-0.1,1-0.3
	c8.8-5.1,17.5-10.1,26.3-15.2c2.2-1.3,0.2-4.7-2-3.5c-8.8,5.1-17.5,10.1-26.3,15.2l3,1.7c0-19.6,0-39.3,0-58.9c0-17.1,0-34.3,0-51.4
	c0-8,0-15.9,0-23.9l-1,1.7l38-21.9l46.1-26.6L142,37l-3-1.7c0,11.2,0,22.4,0,33.6C139,71.4,143,71.5,143,68.9L143,68.9z"/>
<path class="st1" d="M110.8,167c-1.9-1.1-6.6-3.9-12.2-7.1L67,178.2c0,5.6,0,82.1,0,86.9c6.3,3.7,11.3,6.5,13.5,7.7L110.8,167z"/>
<path class="st2" d="M110.5,168.4c-9.4,5.4-19.5,11.2-30,17.3c0,9.5,0,74.7,0,87.2c0.3-0.2,21-12.1,30.2-17.5c0-4.1,0-71.8,0-87.2
	L110.5,168.4z"/>
<path class="st1" d="M235.5,9.1c-1.9-1.1-6.6-3.9-12.2-7.1l-31.6,18.3c0,5.6,0,168.2,0,173.1c6.3,3.7,11.3,6.5,13.5,7.7L235.5,9.1z"
	/>
<path class="st1" d="M172.2,76.8c-1.9-1.1-6.6-3.9-12.2-7.1L128.3,88c0,5.6,0,136.7,0,141.6c6.3,3.7,11.3,6.5,13.5,7.7L172.2,76.8z"
	/>
<path class="st3" d="M171.8,78.2l-30,17.3c0,9.5,0,129.4,0,141.9c0.3-0.2,21-12.1,30.2-17.5c0-4.1,0-126.5,0-141.9L171.8,78.2z"/>
<path class="st4" d="M235.2,10.5l-30,17.3c0,9.5,0,160.9,0,173.3c0.3-0.2,21-12.1,30.2-17.5c0-4.1,0-158,0-173.3L235.2,10.5z"/>
<path class="st0" d="M236.5,7.4c-4.1-2.4-8.1-4.7-12.2-7.1c-0.6-0.4-1.4-0.4-2,0l-21.4,12.4l-5.7,3.3l-2.8,1.6
	c-0.9,0.5-2.3,1-2.6,2.2c-0.1,0.4-0.1,0.9-0.1,1.3c0,3.2,0,6.4,0,9.6c0,6,0,12,0,18c0,7.9,0,15.8,0,23.8v27c0,9.2,0,18.5,0,27.7
	v25.7c0,7.1,0,14.3,0,21.4c0,4.8,0,9.6,0,14.4v3.8c0,0.3,0,0.6,0,0.9c0.1,1.6,1.5,2.1,2.7,2.8c1.7,1,3.4,2,5.1,2.9
	c2.2,1.3,4.4,2.5,6.7,3.8c2.2,1.3,4.2-2.2,2-3.5c-4.5-2.6-9-5.1-13.5-7.7l1,1.7c0-6.2,0-12.4,0-18.6c0-13.5,0-27,0-40.5
	c0-16.2,0-32.4,0-48.7V43.3c0-7.4,0-14.9,0-22.3v-0.7l-1,1.7l31.6-18.3h-2c4.1,2.4,8.1,4.7,12.2,7.1C236.7,12.1,238.7,8.7,236.5,7.4
	L236.5,7.4z"/>
<path class="st0" d="M191.6,22.5c3.8,2.2,7.6,4.4,11.4,6.6c1,0.6,2.2,0.2,2.7-0.7c0.6-1,0.2-2.2-0.7-2.7c-3.8-2.2-7.6-4.4-11.4-6.6
	c-1-0.6-2.2-0.2-2.7,0.7C190.3,20.7,190.6,21.9,191.6,22.5z"/>
<path class="st0" d="M173.2,75.1c-4.1-2.4-8.1-4.7-12.2-7.1c-0.6-0.4-1.4-0.4-2,0l-17.7,10.2c-3.1,1.8-6.3,3.6-9.4,5.4
	c-1.5,0.9-3.1,1.6-4.5,2.6c-0.6,0.4-1,1.2-1,1.9c-0.1,2.4,0,4.7,0,7.1c0,11.3,0,22.7,0,34c0,15.2,0,30.4,0,45.6
	c0,13.1,0,26.2,0,39.4c0,3.9,0,7.9,0,11.8c0,1,0,1.9,0,2.9c-0.1,0.9,0.3,1.8,1,2.3c2.6,1.8,5.6,3.2,8.3,4.8c1.7,1,3.5,2,5.2,3
	c2.2,1.3,4.2-2.2,2-3.5c-4.5-2.6-9-5.1-13.5-7.7l1,1.7c0-5.2,0-10.3,0-15.5c0-11,0-22,0-33c0-13.1,0-26.3,0-39.4c0-11.5,0-23,0-34.6
	c0-6.2,0-12.3,0-18.5V88l-1,1.7l31.6-18.3h-2c4.1,2.4,8.1,4.7,12.2,7.1C173.4,79.8,175.4,76.4,173.2,75.1L173.2,75.1z"/>
<path class="st0" d="M128.2,90.2c3.8,2.2,7.6,4.4,11.4,6.6c1,0.6,2.2,0.2,2.7-0.7c0.6-1,0.2-2.2-0.7-2.7c-3.8-2.2-7.6-4.4-11.4-6.6
	c-1-0.6-2.2-0.2-2.7,0.7C126.9,88.4,127.3,89.7,128.2,90.2z"/>
<path class="st0" d="M65,239.7c0,6.7,0,13.4,0,20c0,1.6,0,3.2,0,4.8c-0.1,1.2,0.6,2.3,1.6,2.8c1.7,1,3.4,2,5.1,3
	c2.6,1.5,5.1,2.9,7.7,4.4c2.2,1.3,4.2-2.2,2-3.5c-4.5-2.6-9-5.1-13.5-7.7l1,1.7c0-8.5,0-17,0-25.5C69,237.1,65,237.1,65,239.7
	L65,239.7z"/>
<path class="st0" d="M111.8,165.3c-4.1-2.4-8.2-4.7-12.2-7.1c-0.6-0.4-1.4-0.4-2,0l-24.4,14.1l-6.4,3.7c-1,0.6-1.8,1.1-1.9,2.3
	c0,0.2,0,0.3,0,0.5v3.9c0,11.9,0,23.7,0,35.6c0,7.3,0,14.5,0,21.8c0,2.6,4,2.6,4,0c0-18.4,0-36.8,0-55.2c0-2.2,0-4.3,0-6.5l-1,1.7
	l31.6-18.3h-2c4.1,2.4,8.1,4.7,12.2,7.1C112,170.1,114.1,166.6,111.8,165.3L111.8,165.3z"/>
<path class="st0" d="M66.9,180.4c3.8,2.2,7.6,4.4,11.4,6.6c1,0.6,2.2,0.2,2.7-0.7s0.2-2.2-0.7-2.7l0,0c-3.8-2.2-7.6-4.4-11.4-6.6
	c-1-0.6-2.2-0.2-2.7,0.7C65.6,178.7,65.9,179.9,66.9,180.4L66.9,180.4z"/>
<path class="st0" d="M246.8,179.1c9-5.2,18.1-10.4,27.1-15.7l7.4-4.3c2.2-1.3,0.2-4.7-2-3.5c-9.9,5.7-19.8,11.4-29.7,17.2l-4.8,2.8
	C242.6,177,244.6,180.4,246.8,179.1L246.8,179.1z"/>
<path class="st0" d="M33.5,303c9-5.2,18.1-10.4,27.1-15.7L68,283c2.2-1.3,0.2-4.7-2-3.5c-9.9,5.7-19.8,11.4-29.7,17.2
	c-1.6,0.9-3.2,1.9-4.8,2.8C29.2,300.8,31.3,304.3,33.5,303L33.5,303z"/>
<path class="st0" d="M237.4,61.9c0-15.2,0-30.4,0-45.6c0-2,0-4,0-6c0-1.1-0.9-2-2-2c-0.3,0-0.7,0.1-1,0.3l-19.6,11.3
	c-3.4,2-6.9,3.8-10.2,5.9c-1,0.5-1.6,1.6-1.4,2.8c0,3,0,6.1,0,9.1c0,12.6,0,25.2,0,37.8c0,16.7,0,33.4,0,50.1c0,15.7,0,31.3,0,47
	c0,9.1,0,18.3,0,27.4v1.3c0,1.1,0.9,2,2.1,2c0.3,0,0.7-0.1,1-0.3c7.3-4.3,14.7-8.5,22.1-12.8l6.8-3.9c1.1-0.6,2.2-1.1,2.3-2.6
	c0-0.2,0-0.4,0-0.6v-6.2v-27.4c0-13.3,0-26.6,0-39.9c0-14.2,0-28.4,0-42.6L237.4,61.9c0-2.6-4-2.6-4,0l0,62.5c0,16.3,0,32.6,0,48.9
	c0,3.5,0,7,0,10.4l1-1.7c-9.1,5.3-18.3,10.5-27.4,15.8c-0.9,0.5-1.9,1.1-2.8,1.6l3,1.7c0-7.1,0-14.1,0-21.2c0-13.4,0-26.8,0-40.2
	c0-15.7,0-31.4,0-47V51.5c0-7.6,0-15.2,0-22.8v-0.9l-1,1.7l30.2-17.5l-3-1.7c0,12.9,0,25.8,0,38.7c0,4.3,0,8.6,0,12.9
	C233.4,64.5,237.4,64.5,237.4,61.9L237.4,61.9z"/>
<path class="st0" d="M170.8,76.5l-15.6,9l-8.2,4.7l-4.1,2.3c-1.3,0.7-3,1.3-3.1,3c-0.1,2.2,0,4.5,0,6.8v29.9c0,13.7,0,27.5,0,41.2
	c0,13,0,25.9,0,38.9c0,7.9,0,15.9,0,23.8v1.2c0,1.1,0.9,2,2.1,2c0.3,0,0.7-0.1,1-0.3c5.2-3.1,10.5-6.1,15.7-9.1l11.6-6.7
	c1.4-0.8,3.8-1.6,3.9-3.5c0-0.3,0-0.5,0-0.8v-23.7c0-14.3,0-28.5,0-42.8l0-44.3c0-9.5,0-19.1,0-28.6v-1.6c0-1.1-0.9-2-2-2
	c-0.3,0-0.7,0.1-1,0.3L170.8,76.5c-2.2,1.3-0.2,4.7,2,3.5l0.3-0.2l-3-1.7c0,6.5,0,13,0,19.6c0,11.3,0,22.7,0,34
	c0,12.8,0,25.6,0,38.3c0,10.9,0,21.8,0,32.6c0,5.6,0,11.2,0,16.8v0.5l1-1.7c-9.1,5.3-18.3,10.5-27.4,15.8c-0.9,0.5-1.9,1.1-2.8,1.6
	l3,1.7c0-6,0-12,0-18.1c0-10.9,0-21.8,0-32.7c0-12.7,0-25.4,0-38c0-11.1,0-22.1,0-33.2c0-6.3,0-12.7,0-19v-0.9l-1,1.7l30-17.3
	C175.1,78.6,173.1,75.2,170.8,76.5z"/>
<path class="st0" d="M78.5,232.3c0,13.5,0,27.1,0,40.6c0,1.1,0.9,2,2,2c0.3,0,0.7-0.1,1-0.3c7.2-4.3,14.6-8.4,21.8-12.6l6.7-3.9
	c1.2-0.7,2.6-1.2,2.6-2.7c0-0.2,0-0.4,0-0.7c0-2.1,0-4.2,0-6.3c0-8.3,0-16.7,0-25c0-10.2,0-20.3,0-30.5c0-7.7,0-15.3,0-23v-1.7
	c0-1.1-0.9-2-2.1-2c-0.3,0-0.7,0.1-1,0.3l-19.6,11.3c-3.4,2-6.9,3.8-10.2,5.9c-1,0.5-1.5,1.5-1.4,2.6v1.7c0,9.2,0,18.5,0,27.7
	c0,5.7,0,11.4,0,17.1c0,2.6,4,2.6,4,0c0-13.8,0-27.6,0-41.4v-5.7l-1,1.7l30.2-17.5l-3-1.7c0,11.7,0,23.4,0,35.1
	c0,13.8,0,27.7,0,41.5c0,3.5,0,7.1,0,10.6l1-1.7c-9.1,5.3-18.3,10.5-27.4,15.8c-0.9,0.5-1.9,1.1-2.8,1.6l3,1.7c0-13.5,0-27.1,0-40.6
	C82.5,229.8,78.5,229.8,78.5,232.3L78.5,232.3z"/>
<path class="st0" d="M227.2,57.7c8.7-5,17.4-10.1,26.2-15.1c2.2-1.3,0.2-4.7-2-3.5c-8.7,5-17.4,10.1-26.2,15.1
	C222.9,55.6,224.9,59,227.2,57.7z"/>
<path class="st0" d="M3,151.6c6.2-3.6,12.4-7.2,18.6-10.8l27.8-16l12.7-7.4c2.2-1.3,0.2-4.7-2-3.5c-8.3,4.8-16.5,9.5-24.8,14.3
	L9.3,143.3L1,148.2C-1.3,149.4,0.8,152.9,3,151.6L3,151.6z"/>
<path class="st1" d="M338.4,315.6l-1-0.5h0c-3.2,1.5-13.1,1.7-15,0.3c-3.6,4.1-8.8,4.7-13.5,4.1c-0.6,0-1.3-0.2-1.9-0.4
	c-1.7-0.6-3.2-1.5-4.5-2.6c0,0,0,0,0,0c-0.4,0-0.6,0.1-0.6,0.1c-0.8-0.5-3.1,0-4.1,1.5s-0.9,4.2-0.4,5.9c1.2,3.6,4.7,5.4,8.2,6.7
	c3.7,1.4,7.7,1.7,11.5,1c1.6-0.4,3-1.5,3.8-3c0.5-0.9,0.8-1.8,0.9-2.8l6.1,1.4c1.3,0.3,2.5,0.5,3.8,0.5c0.6,0,1.2,0,1.8-0.1
	c1.8-0.1,3.5-1,4.6-2.5c0.6-1.2,0.9-2.5,0.9-3.8C339.2,320.1,338.4,316.9,338.4,315.6z"/>
<path class="st1" d="M321.3,179.5c-0.2,0.8-0.5,1.6-0.9,2.2c-0.9,1.4-2.2,2.5-3.7,3.2c2.6,4.8,7.1,8.2,12.4,9.5
	c-0.9,0.9-1.7,1.9-2.3,3c-2.2-0.1-4.5,0-6.7,0.5c-5.5,1.1-13.1,3.6-15.1,4.9c-1.3,0.9-2.4,1.9-3.3,3.1l1.3-4.1
	c0.5-1.5,0.5-3.1,0-4.6c-0.6-1.5-1.7-2.7-3.1-3.5l0.5-2.8c0,0,0,0,0,0c-2.5-2.6-4.2-6-4.8-9.5c-1.2-6.4,0.3-13.1,4.1-18.3
	c0.9-1.2,1.9-2.3,2.9-3.3c3.2,5.6,7.8,10.4,13.2,13.9c2-0.5,4,0.4,5,2.2C321.5,177,321.6,178.3,321.3,179.5z"/>
<path class="st1" d="M297.9,192.9c-1.1-0.3-2.3-0.3-3.4-0.1c-3.3,0.7-5.6,3.8-5.3,7.2l0.1,2c0.3,0,0.6,0.1,0.9,0.2
	c2.1,1,8,4.3,9.5,5.3l0.6,0.4c1.1-1.7,2.5-3.3,4.1-4.6l-1.4-1.5c0.5-1.5,0.5-3.1,0-4.6C302.2,195,300.2,193.4,297.9,192.9z"/>
<path class="st5" d="M313.4,154.3c-4,0.8-7.7,2.7-10.7,5.5c3.2,5.6,7.8,10.4,13.2,13.9c2-0.5,4,0.4,5,2.2c0.9,1.9,0.7,4.2-0.5,5.9
	c-0.9,1.4-2.2,2.5-3.7,3.2c2.6,4.8,7.1,8.2,12.4,9.5c0.1-0.1,0.2-0.2,0.3-0.3c2.8-3.1,4.8-5.2,6.5-8.2c2.4-4.2,3.4-9.1,2.8-13.9
	c-1.4-9.6-9.6-17.7-19.3-18.2C317.4,153.7,315.3,153.8,313.4,154.3z"/>
<path class="st0" d="M305.5,172.5c-0.1,0.9-0.7,1.8-1.5,2.3c-0.6,0.3-1.2,0.4-1.8,0.2c-0.9-0.2-1.5-0.8-1.9-1.7
	c-0.5-1.3,0-2.8,1.1-3.6c1.1-0.8,2.6-0.6,3.5,0.5C305.4,170.7,305.7,171.6,305.5,172.5z"/>
<path class="st1" d="M329.6,258.6c1.1-0.2,2.3-0.4,3.5-0.6c1.6-0.3,4.3-1,5.2-2c1.1-1.3,1.1-2.7,1.1-4.7c0.5-15.3,1.3-26.7-1.3-39.7
	c-0.8-4.1-2-8.3-4.9-11.3s-6.6-3.6-12.9-2.4c-5.5,1.1-13.1,3.6-15.1,4.9c-1.9,1.4-3.5,3.1-4.8,5.1l-0.6-0.4c-1.5-1-7.4-4.3-9.5-5.3
	c-0.4-0.2-0.9-0.2-1.4-0.2c-0.6,0.1-0.9,0.8-1.1,1.4c-1.5,5.1-2.5,10.3-3.3,15.6c-0.9,5.3-1,10.8-0.3,16.2c0.3,2.1,1.5,3.9,3.2,5.1
	c1.5,1.2,3.7,1.1,5.6,0.7c2-0.5,3.8-1.3,5.5-2.4l-0.1,6.6c0,3.1,0.1,6.7,0.1,6.7c-0.1,1.7,0.8,4.5,2.2,5.4c1.2,0.8,2.9,1.2,6.5,1.9
	C314.7,260.6,321.5,259.9,329.6,258.6z"/>
<path class="st6" d="M315.8,260c-2.9,0-5.8-0.2-8.6-0.7c-4.1-0.8-5.7-1.1-7-2.2c-0.1,9,0.6,44.4,1.3,57.2l0.2,1.1
	c0.3,1.5,2.7,2.9,5.2,3.9c0.6,0.2,1.2,0.3,1.9,0.4c4.7,0.6,9.9,0,13.5-4.1c2.3,1.7,16.7,1,16-1.6c-0.5-12.8-0.9-38.6-0.5-50
	c0,0-0.1-3.9-0.2-7.3c-1.4,0.8-3,1.3-4.6,1.5C327.4,259.2,321.6,259.8,315.8,260z"/>
<path class="st0" d="M298.3,259.5c0,14.9,0.4,29.8,0.9,44.7c0.1,3.4,0.2,6.8,0.4,10.2c0.1,2.6,4.1,2.6,4,0
	c-0.8-14.9-1-29.8-1.2-44.6c-0.1-3.4-0.1-6.8-0.1-10.2C302.3,256.9,298.3,256.9,298.3,259.5L298.3,259.5z"/>
<path class="st0" d="M335.9,263.8c-0.4,13.9-0.1,27.9,0.3,41.8c0.1,3.3,0.2,6.6,0.3,10c0.1,2.6,4.1,2.6,4,0
	c-0.6-13.9-0.8-27.9-0.7-41.8c0-3.3,0-6.6,0.1-10C339.9,261.3,335.9,261.3,335.9,263.8z"/>
<path class="st0" d="M320.2,278c-0.6,11-0.9,22-1,33.1c0,1.9-0.1,3.8,0.1,5.7c0.2,2.6,4.2,2.6,4,0c-0.3-4.3,0-8.6,0.1-12.9
	c0.1-6.2,0.3-12.5,0.6-18.7c0.1-2.4,0.2-4.8,0.3-7.2C324.3,275.4,320.3,275.4,320.2,278L320.2,278z"/>
<path class="st0" d="M299.9,315.9c0.5,2,2.3,3.2,4,4.1c1,0.6,2.1,1,3.2,1.3c1.1,0.2,2.2,0.4,3.3,0.4c4.3,0.4,8.6-0.8,12-3.4
	c0.8-0.8,0.8-2,0-2.8c-0.8-0.8-2-0.8-2.8,0c-2.5,1.8-5.5,2.6-8.5,2.3c-1.5,0-3.1-0.3-4.5-1c-0.8-0.3-1.5-0.7-2.1-1.2
	c-0.2-0.2-0.4-0.3-0.6-0.5c0.1,0.1,0.1,0.1-0.1-0.1c0.1,0.2,0.1,0.1,0-0.1C303.1,312.3,299.3,313.4,299.9,315.9L299.9,315.9z"/>
<path class="st0" d="M322.6,317.7c2.6,0.6,5.2,0.8,7.8,0.6c2.7,0,5.4-0.5,8-1.5c0.9-0.6,1.3-1.8,0.7-2.7c-0.6-0.9-1.8-1.2-2.7-0.7
	c-0.4,0.2,0.5-0.2,0.1,0c-0.1,0-0.2,0.1-0.3,0.1c-0.2,0.1-0.5,0.1-0.7,0.2c-0.6,0.1-1.1,0.3-1.7,0.3l-0.4,0.1c-0.2,0,0.3,0-0.1,0
	c-0.3,0-0.7,0.1-1,0.1c-0.7,0.1-1.4,0.1-2.1,0.1c-1.3,0.1-2.6,0-3.9,0c-0.3,0-0.5,0-0.8-0.1c-0.2,0-0.3,0-0.5-0.1c0.5,0,0.1,0,0,0
	c-0.4-0.1-0.9-0.2-1.3-0.3c-1.1-0.3-2.2,0.3-2.5,1.4S321.6,317.4,322.6,317.7L322.6,317.7z"/>
<path class="st0" d="M302.9,314.8c-1.6-0.7-3.4-0.5-4.9,0.4c-1.7,1-2.8,2.8-2.9,4.8c-0.4,4,1.4,7.9,4.8,10c3.7,2.4,8,3.8,12.5,3.9
	c4.2,0.2,8.8-0.7,10.7-4.9c1.6-3.6,1-7.9,0.1-11.7c-0.6-2.5-4.4-1.4-3.9,1.1c0.5,1.9,0.7,3.9,0.7,5.8c0,0.6-0.1,1.2-0.2,1.8
	c-0.1,0.3-0.1,0.5-0.2,0.8c0,0.1-0.3,0.8-0.1,0.4c-1.7,3.7-7,3.1-10.3,2.4c-3.2-0.7-7.6-2.1-9.4-5.1c-0.8-1.4-1-3-0.7-4.5
	c0.1-0.6,0.4-1.1,1-1.3c0.3-0.1,0.6-0.1,0.9-0.2c0.1-0.1,0.3,0.1-0.1-0.1C303.2,319.4,305.2,315.9,302.9,314.8L302.9,314.8z"/>
<path class="st0" d="M336.4,315.6c0.1,1.5,0.3,3,0.6,4.5c0,0.2,0.1,0.4,0.1,0.6c0-0.5,0-0.1,0,0c0,0.3,0,0.6,0,0.9
	c0,0.2,0,0.5-0.1,0.7c0,0.5,0.1-0.2,0,0.2c-0.1,0.3-0.1,0.5-0.2,0.7c0,0.1-0.2,0.6-0.1,0.5s-0.2,0.3-0.2,0.4c-0.1,0.2-0.1,0.2,0,0
	c-0.1,0.1-0.1,0.1-0.2,0.2c-0.1,0.2-0.3,0.3-0.4,0.4c0.3-0.3-0.2,0.1-0.2,0.1c-0.2,0.1-0.4,0.2-0.6,0.3c-0.2,0.1-0.2,0.1,0,0
	c-0.1,0-0.2,0.1-0.3,0.1c-0.4,0.1-0.8,0.2-1.2,0.3c-0.1,0-0.1,0,0.1,0c-0.1,0-0.3,0-0.5,0c-0.2,0-0.5,0-0.7,0c-0.5,0-0.9,0-1.4,0
	c-0.2,0-0.4,0-0.7,0c-0.2,0-0.3,0,0,0c-0.1,0-0.2,0-0.3,0c-0.5-0.1-1-0.2-1.5-0.3c-1.1-0.3-2.2,0.3-2.5,1.4
	c-0.3,1.1,0.3,2.2,1.4,2.5c4.1,1,10.1,1.1,12.5-3.1c1-1.8,1.3-3.8,1-5.8c-0.1-1-0.3-1.9-0.5-2.9c0-0.2-0.1-0.4-0.1-0.6
	c0-0.1,0-0.2,0-0.3c0-0.2,0-0.2,0,0.1c-0.1-0.3-0.1-0.6-0.1-1c0-1.1-0.9-2-2-2S336.4,314.5,336.4,315.6L336.4,315.6z"/>
<path class="st0" d="M307.3,226.4c-2.7,3.7-5.6,7.7-9.4,10.3c-1.8,1.3-3.9,2.2-6.1,2.6c-2.1,0.4-4.2-0.7-5-2.6c-0.5-1-0.7-2-0.8-3
	c-0.2-1.5-0.3-3-0.3-4.5c0-3,0.2-6,0.6-9c0.4-2.8,0.9-5.6,1.4-8.3c0.3-1.4,0.6-2.8,0.9-4.1c0.2-0.8,0.4-1.5,0.6-2.3
	c0.1-0.3,0.2-0.6,0.3-0.9c0.1-0.2,0.1-0.3,0.2-0.5c0.1-0.2-0.1-0.2-0.5,0.1c0,0,1.8,0.8,1.9,0.9c1,0.5,2,1.1,3,1.6
	c1.6,0.9,3.2,1.7,4.7,2.7c2.2,1.4,4.2-2.1,2-3.5c-1.7-1.1-3.4-2-5.1-2.9c-1.7-1-3.8-2.5-5.8-2.7c-3.9-0.5-4.4,4-5.1,6.9
	c-0.8,3.4-1.4,6.8-1.9,10.2c-0.6,3.5-1,7-1.1,10.5c0,1.6,0,3.2,0.2,4.8c0,1.7,0.3,3.4,0.8,5c1,2.6,3.3,5.2,6.1,5.7
	c2.8,0.6,5.8-0.3,8.4-1.5c5.9-2.7,9.9-8.2,13.6-13.3c0.5-1,0.2-2.2-0.7-2.7C309.1,225.1,307.9,225.5,307.3,226.4L307.3,226.4z"/>
<path class="st0" d="M305,202.3c1.5-4.2-0.5-8.8-4.6-10.6c-3.7-1.7-8.3-1.3-11.1,2c-1.5,1.8-2.3,4.1-2.1,6.4c0,1.1,0.9,2,2,2
	c1.1,0,2-0.9,2-2c0-0.3,0-0.5,0-0.8c0-0.1,0.1-0.8,0-0.4c0.1-0.4,0.2-0.8,0.3-1.2c0.1-0.2,0.1-0.2,0,0c0-0.1,0.1-0.2,0.2-0.3
	c0.1-0.2,0.2-0.3,0.3-0.5c0-0.1,0.5-0.6,0.2-0.3c0.2-0.2,0.3-0.4,0.5-0.5c0.1-0.1,0.3-0.2,0.4-0.4c-0.3,0.3,0.3-0.2,0.3-0.2
	c0.2-0.1,0.4-0.2,0.6-0.4c-0.3,0.2,0.2-0.1,0.2-0.1c0.2-0.1,0.5-0.2,0.7-0.2c0.1,0,0.2-0.1,0.4-0.1c-0.2,0-0.2,0,0,0
	c0.4,0,0.9,0,1.3,0c0.2,0,0.2,0,0,0c0.1,0,0.2,0,0.4,0.1c0.2,0,0.4,0.1,0.5,0.1c0.2,0.1,0.5,0.1,0.7,0.2c-0.4-0.1,0.3,0.1,0.4,0.2
	c0.2,0.1,0.3,0.2,0.5,0.3c0.1,0,0.7,0.5,0.4,0.2c0.3,0.3,0.6,0.6,0.9,0.9c0.1,0.2,0.2,0.2,0,0c0.1,0.1,0.1,0.2,0.2,0.3
	c0.1,0.2,0.2,0.4,0.4,0.6c0.2,0.3,0-0.2,0.1,0.2c0.1,0.3,0.2,0.5,0.2,0.8c0-0.3,0,0.4,0,0.5c0,0.3,0,0.5,0,0.8c0,0.3,0,0.3,0,0.1
	c0,0.1,0,0.3-0.1,0.4c-0.1,0.3-0.1,0.5-0.2,0.8c-0.3,1.1,0.3,2.2,1.4,2.5C303.6,204,304.7,203.4,305,202.3L305,202.3z"/>
<path class="st0" d="M296.4,245.2c0,2.2,0.1,4.4,0.1,6.6c0,2.4,0.8,4.8,2.5,6.6c1.4,1.4,3.5,1.8,5.4,2.2c2.9,0.6,5.9,1,8.9,1.2
	c6.2,0.3,12.3-0.6,18.4-1.6c2.4-0.4,5.2-0.7,7.2-2.2c2.4-1.7,2.4-4.6,2.5-7.3c0.4-11.9,1.1-23.8-0.7-35.6c-0.9-5.5-2-11.7-5.9-16
	c-3.4-3.7-8.2-4.2-13-3.6c-5.7,0.8-11.3,2.4-16.5,4.8c-2.6,1.4-4.7,3.4-6.3,5.8c-2.1,2.9-3.8,6-5.3,9.2c-0.5,1-0.2,2.2,0.7,2.7
	c1,0.5,2.2,0.2,2.7-0.7c1.2-2.6,2.6-5,4.1-7.4c1.3-2.1,2.8-4.3,5-5.6c1.5-0.8,3-1.4,4.6-1.9c2.3-0.8,4.6-1.5,7-2.1
	c3.8-0.9,8.7-2.2,12.3,0c4,2.4,5.2,7.7,6,11.9c2.1,10.2,1.8,20.6,1.5,31c-0.1,2.9-0.2,5.8-0.3,8.8c0,0.8,0,2-0.6,2.6
	c-0.7,0.5-1.5,0.8-2.4,1c-2.6,0.6-5.3,1.1-7.9,1.4c-2.7,0.4-5.3,0.7-8,0.8c-2.9,0.2-5.8,0.1-8.7-0.3c-2.5-0.2-4.9-0.7-7.2-1.5
	c-0.6-0.3-1.1-0.8-1.4-1.4c-0.4-0.9-0.6-1.8-0.6-2.8c-0.1-2.2-0.1-4.4-0.1-6.7C300.4,242.7,296.4,242.7,296.4,245.2L296.4,245.2z"/>
<path class="st0" d="M328.8,198c1.1-1.6,2.4-3.1,3.7-4.4c1.5-1.7,3-3.4,4.2-5.3c2.6-3.9,4-8.5,4.1-13.2c-0.1-8.2-4.3-15.7-11.2-20
	c-7-4.3-15.9-4.2-23.1-0.5c-7.9,4.2-13,12.3-13.3,21.2c-0.5,9.9,5.9,21.4,17,21.1c2.6-0.1,2.6-4.1,0-4c-8.2,0.3-12.8-8.1-13-15.4
	c-0.2-7.6,3.6-14.7,10.1-18.7c5.8-3.5,13.3-4.1,19.3-0.9c5.8,3.2,9.7,9,10.2,15.7c0.3,4.6-1,9.1-3.6,12.9c-1.2,1.8-2.6,3.4-4.1,5
	c-1.4,1.4-2.7,2.9-3.8,4.5C324.1,198.2,327.5,200.2,328.8,198L328.8,198z"/>
<path class="st0" d="M301.7,162c3.3,5.2,7.7,9.7,12.8,13.1c1,0.5,2.2,0.2,2.7-0.7c0.5-1,0.2-2.2-0.7-2.7c-0.6-0.4-1.2-0.8-1.8-1.2
	l-0.4-0.3l-0.2-0.1c0.1,0.1,0.1,0.1,0,0c-0.3-0.2-0.6-0.5-0.9-0.7c-1.1-0.9-2.1-1.8-3.1-2.9c-1-1-1.9-2.1-2.8-3.2l-0.1-0.2
	c0.1,0.1,0.1,0.1,0,0c-0.1-0.1-0.2-0.3-0.3-0.4c-0.2-0.3-0.4-0.6-0.6-0.8c-0.4-0.6-0.8-1.2-1.2-1.9c-0.6-1-1.8-1.3-2.7-0.7
	C301.5,159.8,301.2,161,301.7,162L301.7,162z"/>
<path class="st0" d="M316.4,175.5c0.1,0,0.6-0.1,0.1,0c0.2,0,0.3,0,0.5,0s0.3,0,0.5,0c-0.3,0-0.2,0,0,0c0.2,0,0.3,0.1,0.5,0.1
	c0.2,0.1-0.3-0.2,0,0c0.1,0.1,0.3,0.1,0.4,0.2c0.1,0.1,0.4,0.4,0.1,0.1c0.1,0.1,0.2,0.2,0.3,0.3c0.3,0.3-0.1-0.3,0.1,0.1
	c0.1,0.1,0.1,0.2,0.2,0.3c0,0.1,0.1,0.2,0.1,0.2c-0.1-0.2-0.1-0.2,0-0.1s0.1,0.3,0.1,0.4s0.1,0.5,0.1,0.2c0,0.4,0,0.7,0,1.1
	c0,0.4,0.1-0.3,0,0.2c0,0.2-0.1,0.3-0.1,0.5c0,0.2-0.1,0.4-0.2,0.5c0,0.1-0.2,0.4,0,0.1c-0.2,0.3-0.3,0.6-0.5,1
	c-0.3,0.5,0.2-0.3-0.1,0.2c-0.1,0.1-0.2,0.3-0.4,0.4c-0.2,0.3-0.5,0.5-0.8,0.7c-0.1,0.1-0.3,0.3-0.1,0.1c-0.2,0.1-0.3,0.2-0.5,0.3
	c-0.3,0.2-0.6,0.4-1,0.6c-0.2,0.1-0.3,0.2-0.5,0.2c0.3-0.1-0.1,0-0.2,0.1c-1.1,0.3-1.7,1.4-1.4,2.5c0.3,1.1,1.4,1.7,2.5,1.4
	c3.9-1.4,7.3-4.8,7.4-9.1c0.1-2.2-0.9-4.2-2.7-5.5c-1.6-1.1-3.6-1.5-5.5-1c-1.1,0.3-1.7,1.4-1.4,2.5
	C314.3,175.2,315.4,175.8,316.4,175.5L316.4,175.5z"/>
<path class="st0" d="M315.7,187c2.8,4.3,6.9,7.5,11.8,9c1.1,0.3,2.2-0.3,2.5-1.4c0.3-1.1-0.3-2.1-1.4-2.5c-0.5-0.2-1-0.4-1.5-0.6
	c0.4,0.2-0.1,0-0.1-0.1c-0.1,0-0.2-0.1-0.3-0.1c-0.2-0.1-0.5-0.2-0.7-0.4c-1-0.5-1.9-1.1-2.8-1.7c-0.2-0.2,0.4,0.3,0,0
	c-0.1-0.1-0.2-0.2-0.3-0.3c-0.2-0.2-0.4-0.3-0.6-0.5c-0.4-0.4-0.8-0.7-1.1-1.1c-0.2-0.2-0.4-0.4-0.5-0.6c-0.1-0.1-0.2-0.2-0.3-0.3
	c0,0-0.3-0.4-0.1-0.2s-0.1-0.2-0.1-0.2c-0.1-0.1-0.2-0.2-0.2-0.3c-0.2-0.3-0.3-0.5-0.5-0.8c-0.6-1-1.8-1.3-2.7-0.7
	C315.4,184.8,315.1,186.1,315.7,187L315.7,187z"/>
</svg>
