<svg id="レイヤー_1" data-name="レイヤー 1" xmlns="http://www.w3.org/2000/svg" viewBox="0 0 1773.42 353.15"><defs><style>.cls-1{fill:#231815;}</style></defs><path class="cls-1" d="M764.55,685.14H698V446.76a31.91,31.91,0,0,0-2.67-13,34.71,34.71,0,0,0-7.22-10.6,33.27,33.27,0,0,0-56.92,23.63V685.14H564.35V446.76a33.29,33.29,0,1,0-66.58,0V685.14H431V446.76a98.3,98.3,0,0,1,7.8-39,99.67,99.67,0,0,1,53.31-53.31,100.75,100.75,0,0,1,74.84-1.16,97.17,97.17,0,0,1,31,19.2,99.62,99.62,0,0,1,105.58-18,99.61,99.61,0,0,1,53.3,53.31,98.3,98.3,0,0,1,7.8,39Z" transform="translate(-430.96 -336.65)"/><path class="cls-1" d="M1058.34,558.27a134.32,134.32,0,0,1-10,52A130.41,130.41,0,0,1,1021.09,652a127.44,127.44,0,0,1-40.39,27.7,126.42,126.42,0,0,1-99.17,0,127.65,127.65,0,0,1-67.86-69.37,134.32,134.32,0,0,1-10-52,136.41,136.41,0,0,1,10-52.61A128.74,128.74,0,0,1,841,463.87a127.11,127.11,0,0,1,40.5-27.58,123.4,123.4,0,0,1,49.47-10,130.65,130.65,0,0,1,49.7,9.42,120.29,120.29,0,0,1,40.39,26.78,127,127,0,0,1,27.24,41.67Q1058.34,528.48,1058.34,558.27Zm-64,0a74,74,0,0,0-5-27.82A66.08,66.08,0,0,0,975.7,509a59,59,0,0,0-20.14-13.73,65.61,65.61,0,0,0-49.12,0,57.69,57.69,0,0,0-20,13.73A65.57,65.57,0,0,0,873,530.45a75.8,75.8,0,0,0-4.88,27.82A72.19,72.19,0,0,0,873,585a67.07,67.07,0,0,0,13.39,21.42,62.76,62.76,0,0,0,20,14.32A58.68,58.68,0,0,0,931,626a62.21,62.21,0,0,0,24.56-4.89,61.05,61.05,0,0,0,20.14-13.73A64.41,64.41,0,0,0,989.31,586,74.17,74.17,0,0,0,994.32,558.27Z" transform="translate(-430.96 -336.65)"/><path class="cls-1" d="M1408.23,595.05a92.6,92.6,0,0,1-7.45,36.9,94.64,94.64,0,0,1-20.37,30.15,97.1,97.1,0,0,1-30.27,20.25A93.18,93.18,0,0,1,1313,689.8a95.22,95.22,0,0,1-34-6.17,93.9,93.9,0,0,1-29.57-18,91.52,91.52,0,0,1-29.21,18,95,95,0,0,1-34.11,6.17,92.32,92.32,0,0,1-37-7.45A97.25,97.25,0,0,1,1119,662.1,94.64,94.64,0,0,1,1098.61,632a92.42,92.42,0,0,1-7.45-36.9V436.29h63.55V595.05a30.66,30.66,0,0,0,2.45,12.22A31.62,31.62,0,0,0,1173.92,624a30.66,30.66,0,0,0,12.22,2.45,31.56,31.56,0,0,0,12.34-2.45,32.35,32.35,0,0,0,10.24-6.75,30.63,30.63,0,0,0,9.31-22.23V436.29h63.32V595.05a29.58,29.58,0,0,0,2.56,12.22,33.29,33.29,0,0,0,6.87,10,31.35,31.35,0,0,0,10,6.75,30.69,30.69,0,0,0,12.22,2.45,31.53,31.53,0,0,0,12.34-2.45,31.11,31.11,0,0,0,10.13-6.75,33.29,33.29,0,0,0,6.87-10,29.58,29.58,0,0,0,2.56-12.22V436.29h63.32Z" transform="translate(-430.96 -336.65)"/><path class="cls-1" d="M1553.49,624.15a35.7,35.7,0,0,0,7.45,1.51c2.48.24,5,.35,7.45.35a62.46,62.46,0,0,0,17.92-2.56,64.56,64.56,0,0,0,16.18-7.33,60.1,60.1,0,0,0,13.5-11.64,61,61,0,0,0,9.66-15.25L1672.21,636a125,125,0,0,1-20.37,22.58,128.2,128.2,0,0,1-24.91,17,124.45,124.45,0,0,1-28.16,10.59,128,128,0,0,1-30.38,3.61,125.88,125.88,0,0,1-90-37,127.8,127.8,0,0,1-27.35-41.55q-10-24.09-10-53,0-29.57,10-54a122,122,0,0,1,67.86-68.44,128.6,128.6,0,0,1,49.47-9.54,125.4,125.4,0,0,1,30.49,3.72,127.58,127.58,0,0,1,53.31,27.82,126.51,126.51,0,0,1,20.49,22.7Zm32.59-131.06a36.94,36.94,0,0,0-8.73-2.1,83.52,83.52,0,0,0-9-.46,63.53,63.53,0,0,0-24.56,4.77,58.37,58.37,0,0,0-20,13.62,64.19,64.19,0,0,0-13.39,21.3,76.24,76.24,0,0,0-4.89,28q0,3.5.35,7.92c.24,2.94.62,5.93,1.17,9s1.2,5.93,2,8.73a32.3,32.3,0,0,0,3,7.45Z" transform="translate(-430.96 -336.65)"/><path class="cls-1" d="M1803.74,624.15a35.83,35.83,0,0,0,7.45,1.51c2.48.24,5,.35,7.45.35a62.53,62.53,0,0,0,17.93-2.56,64.49,64.49,0,0,0,16.17-7.33,60.15,60.15,0,0,0,13.51-11.64,61.57,61.57,0,0,0,9.66-15.25L1922.47,636a125.41,125.41,0,0,1-20.37,22.58,128.5,128.5,0,0,1-24.91,17A124.7,124.7,0,0,1,1849,686.19a128,128,0,0,1-30.38,3.61,125.83,125.83,0,0,1-90-37,127.66,127.66,0,0,1-27.36-41.55q-10-24.09-10-53,0-29.57,10-54a122.09,122.09,0,0,1,67.86-68.44,128.6,128.6,0,0,1,49.47-9.54,125.48,125.48,0,0,1,30.5,3.72,127.74,127.74,0,0,1,53.31,27.82,126.84,126.84,0,0,1,20.48,22.7Zm32.59-131.06a36.94,36.94,0,0,0-8.73-2.1,83.52,83.52,0,0,0-9-.46,63.57,63.57,0,0,0-24.56,4.77,58.37,58.37,0,0,0-20,13.62,64.19,64.19,0,0,0-13.39,21.3,76.45,76.45,0,0,0-4.88,28c0,2.33.11,5,.35,7.92a89,89,0,0,0,1.16,9q.81,4.53,2,8.73a32.3,32.3,0,0,0,3,7.45Z" transform="translate(-430.96 -336.65)"/><path class="cls-1" d="M2204.38,558.27q0,29.34-10,53.54a127.06,127.06,0,0,1-27.24,41.56,121.51,121.51,0,0,1-40.39,26.88,129,129,0,0,1-49.7,9.55,125.83,125.83,0,0,1-90-37,127.66,127.66,0,0,1-27.36-41.55q-10-24.09-10-53V336.65h63.79v116.4a57.59,57.59,0,0,1,12.45-11.64,73.71,73.71,0,0,1,15.83-8.38,104.7,104.7,0,0,1,17.58-5,93.88,93.88,0,0,1,17.69-1.74,125.28,125.28,0,0,1,49.7,9.89,123.4,123.4,0,0,1,40.39,27.59,131.52,131.52,0,0,1,27.24,41.78Q2204.38,529.65,2204.38,558.27Zm-64,0a71.61,71.61,0,0,0-5-26.89,67.54,67.54,0,0,0-13.62-21.53,62.52,62.52,0,0,0-20.14-14.2,59.85,59.85,0,0,0-24.56-5.12,54.65,54.65,0,0,0-24.56,5.7,68,68,0,0,0-20.14,15.13,70.83,70.83,0,0,0-13.5,21.65,67.42,67.42,0,0,0-4.89,25.26,72,72,0,0,0,4.89,26.77,66.14,66.14,0,0,0,13.5,21.42,64.16,64.16,0,0,0,20.14,14.32,60.28,60.28,0,0,0,49.12,0,64.28,64.28,0,0,0,20.14-14.32A67.8,67.8,0,0,0,2135.36,585,70.65,70.65,0,0,0,2140.36,558.27Z" transform="translate(-430.96 -336.65)"/></svg>